<?xml version="1.0" encoding="utf-8"?>
<!-- Generator: Adobe Illustrator 21.1.0, SVG Export Plug-In . SVG Version: 6.00 Build 0)  -->
<svg version="1.1" id="Layer_1" xmlns="http://www.w3.org/2000/svg" xmlns:xlink="http://www.w3.org/1999/xlink" x="0px" y="0px"
	 viewBox="0 0 2198.6 733.3" style="enable-background:new 0 0 2198.6 733.3;" xml:space="preserve">
<style type="text/css">
	.st0{fill:#AD9154;}
</style>
<path class="st0" d="M2168.4,328.8c-0.7,2.3-2.1,4.1-4.2,5.3c-0.7,0.4-1.1,0.2-1.4-0.6c-0.5-1.1-1.4-1.2-1.9-0.4
	c-0.3,0.4-0.6,0.9-0.7,1.4c-0.4,1.3-1.4,2.1-2.5,2.9c-0.1,1.2,0.8,1.9,1.1,2.8c0.2,0.8,0.5,1.5-0.7,1.7c-0.4,0.1-0.7,0.7-1,1.1
	c-1.5,2.4-3.7,4-6.1,5.2c-2.1,1-4.2,2-6.3,2.9c-2.8,1.2-5.2,2.8-7.3,5c-1.2,1.4-2.5,2.6-4.3,3.3c-0.8,0.3-1.2,0.7-1.1,1.7
	c0.1,0.7-0.8,0.9-1.4,1.1c-3.1,1-6.1,2-9.2,2.9c-1.3,0.4-1.5,0.3-2.4-1.5c-0.2-0.4-0.4-0.6-0.9-0.5c-0.2,0-0.5,0.3-0.5,0.5
	c-0.3,1.5-1.2,2.1-2.7,2.2c-2.2,0.1-4.3,1-6.3,1.7c-3.4,1.3-6.8,2.5-10.6,1.9c-0.3-0.1-0.9,0-1.1,0.2c-1.4,1.5-3.4,1.3-5.1,1.4
	c-20.9,2.2-39.2,10.8-55.7,23.4c-6.2,4.7-12.2,9.7-18,14.8c-3,2.7-5.3,6.1-6.9,9.7c-2.6,5.9-4.8,12-5.8,18.4
	c-0.8,4.6-0.8,9.3,0.5,13.9c0.4,1.4,0.8,2.7,1.9,3.7c0.4,0.4,0.7,0.8,0.3,1.3c-0.5,0.5-0.9,0.1-1.4-0.1c-0.2-0.1-0.5-0.2-0.7-0.2
	c-0.2,0-0.5,0.1-0.6,0.2c-0.1,0.1-0.1,0.5,0,0.7c0.5,0.9,1.3,1.7,2.2,2.1c0.9,0.5,0.8,1.1,0.7,1.9c-0.5,2.5-2,4.2-4.1,5.3
	c-4.8,2.5-9.3,5.6-13.8,8.6c-2.3,1.5-4.2,3.4-6.2,5.3c-1.6,1.5-2.6,3.5-3.2,5.6c-0.8,2.9,0.2,5.1,2.4,6.9c1.2,1,2.6,1.6,4.1,2.2
	c1.1,0.4,2.1,0.9,3.1,1.5c0.8,0.4,0.9,1.3,0.3,2c-1.9,1.9-3.7,3.9-5.2,6.2c-1.3,2-2.2,4.1-2.5,6.4c-0.4,3.3,0.9,5.8,4,7.2
	c1.1,0.5,2.2,0.8,2.9,1.9c-0.7,1.6-2.2,2.4-3.4,3.6c-1.4,1.3-2.1,2.8-2.2,4.8c-0.2,2.6,0.5,4.5,3,5.7c2.1,1,3.2,3.3,4.8,4.9
	c0.6,0.6,0.7,1.4,0.7,2.2c0,1.2,0,2.4-0.3,3.5c-0.7,3.1-0.6,6.1,0.1,9.2c0.4,1.7,0.9,3.2,1.9,4.6c0.5,0.7,1,1.5,1.5,2.3
	c0.8,1.6,2.1,2.5,3.6,3.4c1.7,0.9,4.1,1.2,4.8,3c0.6,1.6,0,3.6-0.1,5.4c0,1.6,0,3.1,0.1,4.7c0.1,1.7,0.3,3.5,1.3,4.8
	c1.4,2,0.9,3.7,0.1,5.7c-2.3,5.3-3.1,10.9-3.6,16.6c-0.2,1.5-0.2,3.1-0.3,4.7c-0.2,2-0.2,2-2.3,2.7c-0.1,1.3-0.2,2.6-0.2,3.9
	c0,0.9-0.7,1.9,0.1,2.5c0.5,0.4,1.4,0.2,2.2,0.4c2.2,0.6,2.2,0.6,3.4-1.5c0.8,0.8,1,1.8,0.7,2.9c-0.3,1.1-0.7,2.2-1,3.3
	c-0.3,1.3-1,2.5-0.7,3.8c0.4,1.6-0.2,2.8-1.1,3.9c-1.4,1.8-2.9,3.7-4.3,5.5c-2,2.5-4.1,5-5.6,7.9c-0.7,1.4-1.7,2.2-3,2.9
	c-5.8,3.1-11.9,5.5-18.2,7.7c-12.4,4.4-24.8,8.7-36.9,14c-4.5,2-9,4-13.4,6.1c-2.1,1-4.1,2.1-6.1,3.4c-4.1,2.6-7.5,5.9-9.4,10.5
	c-0.3,0.8-0.6,1.3-1.6,1.3c-0.3,0-0.7,0.1-0.5,0.7c0.7,2.1,0.6,4.1-1.4,5.5c0.7,2-1,3.3-1.4,5c-0.2,0.8-0.1,1.6,0.5,2.2
	c1.5,1.4,1.5,3.1,1.1,5c-0.1,0.5,0.1,1,0.2,1.5c0.7,1,1.4,2,1.1,2.6c0.2-0.8-0.8-2.6,0.3-4c0.9-0.3,1.5,0,2,0.7
	c0.6,0.7,1.1,1.4,1.7,2.1c0.4,0.4,1,0.4,1.4,0.3c0.5-0.2,0.8-0.6,0.9-1.2c0.1-0.8,0-1.6,0.1-2.3c0.1-0.8,0.1-1.6,0.4-2.3
	c0.2-0.4,0.5-0.9,1.1-0.9c0.8,0.1,0.7,0.7,0.6,1.1c-0.9,4.2-1.2,8.4-1.3,12.7c0,3.5-0.3,7-0.8,10.4c-0.1,0.9-0.4,1.8-0.6,2.7
	c-0.2,0.9-0.7,1.3-1.6,1.3c-1.8,0.1-3.6,0.2-5.4,0.2c-4.8-0.2-9.6-0.1-14.3-0.8c-0.5-0.1-1,0-1.5-0.2c-3.9-1-3.4-0.1-3.7-4
	c-0.3-3.9-0.5-7.7-0.1-11.6c0.4-4.1-0.1-8.3-0.5-12.4c-0.2-2-0.9-3.8-1.6-5.6c-1.9-4.9-2.9-9.9-1.9-15.2c0-0.1,0-0.3,0-0.4
	c0.3-13.1,1.7-26.1,1-39.2c-0.1-1.2-0.1-2.3-0.2-3.5c-0.3-2.1-0.8-4.1-2.2-5.7c-2.8-3.3-3.4-7.2-3.2-11.3c0.1-4,0.9-8,1.4-11.9
	c1.7-14.1-0.6-27.3-8.7-39.2c-1.6-2.4-3.3-4.6-4.5-7.2c-1.4-3-2.2-6.1-1.3-9.4c0.8-2.9,2.4-5.1,4.6-7c2.6-2.3,5.6-4.1,8.8-5.6
	c7.5-3.7,15.3-6.9,23.3-9.3c3.7-1.1,7.4-2.3,10.9-3.9c3.2-1.5,6.2-3.3,8.4-6c3.5-4.2,4.2-8.7,2.3-13.8c-0.6-1.6-1.2-3.1-1.7-4.7
	c-1-2.9-0.4-5.6,1.4-8.1c0.7-1,1.4-1.9,2-2.8c1.1-1.8,1-3.7-0.2-5.5c-0.3-0.4-0.6-0.9-0.9-1.2c-1.4-1.5-1.7-2.9-0.4-4.8
	c1.4-2.1,1.1-4.5,0.3-6.7c-0.7-2-1.6-3.8-2.4-5.7c-0.8-1.9-1.3-3.9-1.4-6c-0.1-1.2,0.3-2,1.4-2.5c1.4-0.7,2.8-1.3,4.2-1.9
	c1.2-0.5,2.4-1,3.6-1.5c3.6-1.6,4.5-5.3,4.1-8c-0.5-3.3-1.8-6.2-4.2-8.5c-1.2-1.2-2.5-2.2-3.8-3.3c-1.5-1.2-3.1-2.3-4.7-3.4
	c-1.4-1-2.7-2-4-3.1c-5.8-4.8-7.7-10.9-6-18.1c1-4.1,0.1-7.9-1.4-11.7c-0.7-1.7-1.9-3.1-3.3-4.3c-2.2-1.8-3.4-4.2-4.1-6.9
	c-0.6-2.2-1-4.5-1.5-6.8c-0.2-0.9-0.3-1.8-0.5-2.7c-0.5-2.3-1.1-4.5-1.6-6.8c1.3-1.8,3.3-2.8,4.9-4.3c3.9-3.8,5.7-8.5,6.5-13.8
	c0.2-1.6-0.4-3.1-0.8-4.6c-1-4.1-2.9-7.7-5.7-10.9c-2.7-3-5.9-5.1-9.9-5.6c-1.9-0.2-3.5-0.9-4.8-2.2c-0.5-0.4-1-0.9-1.5-1.2
	c-1.6-1.1-3.3-1.6-5.1-1.1c-1.1,0.3-2.2,0.7-3.3,1c-0.9,0.3-1.7,0.3-2.5-0.4c-3.8-2.9-8.2-3.6-12.9-2.7c-2.2,0.4-4.2,0.1-6.4-0.3
	c-3.5-0.7-7.2-0.9-10.8-1.1c-2.4-0.1-4.9,0.1-7.4,0.2c-3.6,0.2-7.2,0-10.9-0.2c-1.1-0.1-1.5-0.5-1.5-1.3c0.5-6-0.4-11.9-1.1-17.8
	c-0.2-1.7-0.3-3.4-0.3-5c0-1.4-0.4-2.5-1.4-3.5c-0.9-0.9-1.6-2-2.4-3c-1-1.4-1.6-3-1.8-4.7c-0.3-3.2,0-3.7,3-4.7
	c3.5-1.2,7.1-2.3,10.6-3.8c7.5-3.2,15.4-5.2,23.4-6.6c1.4-0.2,2.8-0.6,4.2-0.8c2.1-0.4,4-1.2,5.6-2.5c2.2-1.9,4.6-3.2,7.7-3
	c1.5,0.1,2.8-0.7,3.8-1.7c2.7-2.4,6-3.4,9.5-3.9c2.8-0.4,5.7-0.5,8.4-1.3c1.5-0.4,3-0.9,4.3-1.8c4.2-3.2,9.2-4.6,14.2-5.9
	c4.1-1,8.3-1.8,12.4-3.2c0.9-0.3,1.5,0.1,1.7,1c1.2,4.1,3.6,7.4,6.3,10.6c2.2,2.6,4.6,5,6.4,7.8c0.3,0.5,0.9,0.9,1.4,1.3
	c0.5,0.4,1.4,0.2,1.6-0.4c0.2-0.5,0.2-1,0.4-1.5c0.2-0.5,0.6-0.8,1.2-0.9c0.3,0,0.5-0.1,0.8-0.1c5.2,0,10.2-1.4,15.2-2.8
	c1-0.3,2-0.6,3-0.8c3-0.8,4.2-0.4,6,2.1c1.1,1.5,1.8,3.2,2.2,4.9c0.6,2.4,1,4.8,1.5,7.2c0.3,1.4,0.4,2.9,1,4.1c0.9,2,0.8,4,0.4,6.1
	c-0.4,2.2-0.8,4.3-1.2,6.5c-0.5,2.9-1.6,5.5-4.2,7.2c-0.6,0.4-0.7,1-0.3,1.7c1,2.2,0.3,4-1.2,5.7c-0.9,1-1.8,1.8-2.7,2.8
	c-0.7,0.8-1.4,1.5-1.9,2.4c-1.3,2.2-1,3.9,1,5.4c0.2,0.2,0.4,0.3,0.6,0.4c2.7,1.3,3.7,3.3,2.8,6.3c-0.7,2.3,0.4,4.3,2.4,5.7
	c1,0.6,2.1,1,3.2,1.5c0.6,0.3,1.3,0.7,1.1,1.4c-0.4,1.5,0.5,2.1,1.5,2.7c2.9,1.8,5.2,4.3,7.4,6.8c1.8,2,3.7,4,5.5,6
	c0.8,0.9,1.8,1.5,3,1.3c0.3,0,0.5,0,0.8,0c2.3,0.2,3.3,2.2,1.9,4.1c-0.6,0.8-1.5,1.4-2.2,2.1c-0.6,0.5-0.9,1-0.6,1.9
	c0.9,2.7,0.8,2.7,3.7,2.7c1.4,0,2.9,0,4.3,0c0.2,0,0.5-0.2,0.7-0.2c0.5-0.7,0.3-1.5,0.2-2.2c-0.3-2.4-0.5-4.9-0.3-7.4
	c0.3-3.6-0.7-6.6-3.9-8.7c-1.4-0.9-1.4-2,0-2.7c3-1.6,3.5-4,3.6-7c0.1-2.7,1.1-5.3,3.2-7.3c0.7-0.7,1.4-1.1,2.4-0.7
	c3,1.2,5.8,0.6,8.6-0.7c0.9-0.5,1.8-1,2.7-1.5c2.1-0.9,2.5-2.3,2.2-4.6c-0.3-2.8,0.3-5.6,0.5-8.4c0.3-3.9,0.8-7.7,0.5-11.6
	c-0.1-1.4-0.3-2.8-1-4.1c-1.2-2.3-1-4.5,0.1-6.7c0.8-1.6,1.6-3.2,2.4-4.8c0.5-1,0.7-1.8,0.2-2.9c-0.8-2-1.4-4.2-0.7-6.4
	c0.3-0.9-0.2-1.5-0.7-2.1c-2.3-3-4.6-5.9-6.9-8.9c-4.6-6.1-9.2-12.2-13.8-18.2c-3.9-5.1-8.6-9.7-13.1-14.3c-1.4-1.5-3.1-2.3-5.2-2
	c-0.9,0.1-1.8,0-2.7,0.1c-2,0.3-3.4-0.5-4.6-2.1c-0.6-0.8-0.9-1.5-0.8-2.4c0.3-3.9,0.2-7.7-0.4-11.6c-0.2-1.6-0.1-3.4,0.1-5
	c0.5-3.8,0-7.5-1.6-11c-1.4-3.2-2.7-6.4-2.8-10c0-1.2,0-2.3,0.1-3.4c0.7-4,2.3-7.6,4.2-11.2c1.1-2.1,2.1-4.2,3-6.3
	c0.6-1.5,1.1-3.2,1.7-4.9c0.6-0.6,1.6-0.3,2.4-0.3c4.5-0.3,9-0.5,13.6-0.7c5-0.2,10.1-0.3,14.9,1.7c1.2,0.5,2.3,0.2,3.3-0.6
	c1.3-1.1,2.5-2.2,3.8-3.4c1-1,2-2,3.5-2.3c2-0.5,3.9-0.1,5.6,1.1c2.1,1.5,4.1,3.1,6.2,4.7c1,0.8,0.8,1.8,0.8,2.8
	c0.1,1.4,0.3,1.6,1.6,1.6c1.3-0.1,2.6-0.1,3.9-0.4c3-0.5,5.9-0.9,8.5,1.3c0.3,0.3,0.6,0.3,1,0.1c2.1-1,4.3-1.8,6.2-3.1
	c1.9-1.3,3.6-2.8,6.2-1.7c0.2,0.1,0.6,0.1,0.8,0c1.9-1.1,3.2,0.2,4.7,1.1c5.3,3.2,10.8,4.1,16.6,1.1c2.5-1.3,5.3-2.1,7.9-3.1
	c1.2-0.5,1.9-1,2-2.4c0.2-2.3,1-4.5,2.2-6.6c0.9-1.5,2.1-2.2,3.7-2.4c3.1-0.2,6.2,0,9.2,1.1c0.6,0.2,1.2,0.5,1.8,0.7
	c2.2,0.8,3.9,2.5,6.2,3.1c2-1.1,4-2.3,6.1-3.4c2.9-1.5,5.8-2.7,8.5-4.6c0.4-0.3,0.9-0.6,1.4-0.6c3.2,0.1,6.4-1.1,9.6-0.5
	c3.2,0.6,5.8-0.5,8-2.8c0.5-0.6,1.1-1.1,1.7-1.6c1.9-1.9,4.1-3.1,7-2.7c2,0.3,3.8-0.7,5.5-1.6c3.9-2.1,7.5-4.5,11.1-7.1
	c2.5-1.8,5.1-3.6,7.6-5.3c0.5-0.4,1.1-0.7,1.7-1c1.5-0.8,3-1.6,4.6-2c1.4,1.1,1.4,2.9,2.3,4.3c0.9,1.6,0.6,2.2-1,3.6
	c-0.5,0.4-0.9,0.9-1.4,1.3c-0.1,0.1-0.1,0.2-0.1,0.3c0.7,1.4,2.3,1.6,3.4,2.5c-0.6,1.4-1.9,2.1-2.7,3.2c-1,1.4-1.7,2.5,0.4,3.9
	c1.1,0.7,0.9,1.3,0.3,2.2c-1.6,2.7-3.4,5.2-5.4,7.6c-0.6,0.8-0.5,1.4,0.2,2c0.4,0.3,0.8,0.6,1.2,1c0.8,0.7,1.2,1.7,0.9,2.8
	c-1,4.4-0.1,8.8,0.6,13.1c0.3,1.8,0.6,3.6,1,5.3c0.6,3.4,0.7,6.7-1,9.8c-0.4,0.7-0.2,1.2,0.2,1.8c0.3,0.4,0.6,0.9,0.8,1.3
	c1.5,2.8,1.5,2.8-0.7,5.1c-0.4,0.5-0.8,1-1.1,1.6c-0.3,0.6,0.2,1.4,0.8,1.3c1.7-0.2,3.4-0.3,5,0.6c-0.1,0.3-0.1,0.7-0.2,1
	c-0.8,1.9-0.9,3.8,0.1,5.6c0.5,0.9,0.2,1.5-0.4,2c-0.9,0.7-1.9,1.3-2.8,2c-0.6,0.4-1.5,0.5-1.6,1.5c-0.2,0.1-0.3,0.2-0.5,0.4
	c0.1-0.1,0.3-0.3,0.4-0.4c0.8,0.1,1.4,0.2,1.9,1.1c0.5,1,0.4,2,0.6,3c-0.3,0.1-0.7,0.2-1,0.2c0.3,0,0.7-0.1,1-0.3
	c0.7-0.1,1.8-0.4,1.4,0.9c-0.9,3-0.5,5.9,0.1,8.8c0.7,3.4,0.3,6.1-2.6,8.2c-0.6,0.4-0.4,1.1,0.4,1.3c0.4,0.1,0.8,0.1,1.1,0.2
	c0.6,0.1,1,0.5,0.9,1.1c-1.2,3.8,0.2,7.4,1.1,11c0.3,1.3,0.6,2.5,0.9,3.8c0.5,2.2,0.3,4.1-1.5,5.6c-0.3,0.2-0.6,0.5-0.8,0.8
	c-0.6,0.8-0.6,1.8,0,2.5c0.4,0.5,1,0.9,1.5,1.2c0.8,0.6,1.2,0.4,1.8-0.6c0.1-0.2,0.1-0.5,0.2-0.7c0.4-0.8,1.3-0.9,1.9-0.3
	c1.2,1.5,1.3,3.9,0.2,5.4c-0.1,0.2-0.5,0.4-0.7,0.3c-1.3-0.8-1.4,0-1.4,1.1c-0.1,1.9-0.3,3.8-0.4,5.8c0.8,0.2,1.1-0.4,1.5-0.9
	c0.5-0.9,1-1.8,1.6-2.7c0.7-1,1.7-1.6,3-1.5v15.5c-0.6-0.1-0.8,0.6-1.1,0.9c-0.8,0.7-1.6,1.3-2.7,1.3c-1.1,0-1.3-1.1-1.9-1.7
	c-0.3-0.2-0.7-0.4-1,0c-0.1,0.2-0.2,0.5-0.1,0.7c0.3,0.7,0.9,1.3,1.5,1.7c0.7,0.4,1.4,0.7,2,1.1c1.5,1.1,1.5,3.2-0.1,4.2
	c-1,0.6-2.1,0.9-3.2,1.2c-1.2,0.3-2.5,0.7-3.4,1.6c-0.4,0.5-1,1-0.7,1.7c0.3,0.8,1,0.7,1.6,0.5c0.9-0.2,1.7-0.5,2.6-0.7
	c0.6-0.1,1,0.2,1.1,0.8c0.2,1.3-0.1,2.6-0.5,3.8c-0.8,2.4-2,4.5-3.5,6.4c-2.2,2.9-4.5,5.6-6.3,8.8c-1.1,1.9-2.9,3.3-4.6,4.6
	c-1.8,1.4-3.8,2.8-5.2,4.6c-0.4,0.5-0.7,1.1-1,1.6c-0.3,0.7-0.1,1.2,0.4,1.7C2168.6,328.2,2168.5,328.5,2168.4,328.8z"/>
<path class="st0" d="M1846.9,73c2.9,1.4,5.5,3.4,8.1,5.2c11.4,7.8,22.8,15.7,34.1,23.5c14.6,10.2,29.3,20.4,43.9,30.5
	c0.9,0.7,1.8,1.4,2.9,2.3c-0.9,1.4-2.3,2.1-3.4,3.1c-1.1,1.1-2.3,2.1-3.4,3.2c-1.1,1.1-2.2,2.2-3.3,3.3c-1.1,1.1-2.2,2.2-3.2,3.4
	c-1,1.2-2,2.4-3,3.6c-1,1.2-2,2.4-2.9,3.6c-1,1.2-1.5,2.7-2.9,3.5c-1-0.3-1.4-1.1-2-1.8c-11.1-14-22.1-28-33.2-41.9
	c-10.1-12.7-20.4-25.4-30.6-38.1c-0.9-1.1-1.7-2.2-2.6-3.4C1846,72.8,1846.4,72.8,1846.9,73z"/>
<path class="st0" d="M1927.5,23.5c6.7,9.8,13.4,19.7,20.1,29.5c11.6,17.2,23.1,34.4,34.6,51.6c0.5,0.8,1,1.5,1.5,2.3
	c0.5,0.9,0.3,1.3-0.7,1.7c-0.1,0-0.2,0.1-0.4,0.1c-9.1,2.7-17.6,6.8-25.9,11.4c-3.8,2.1-3.3,1-4.1-1.6c-6.6-23.7-13.1-47.3-19.7-71
	c-1.9-7-3.9-14-5.8-20.9c-0.2-0.7-0.3-1.5-0.5-2.3C1926.4,23.5,1926.8,23.3,1927.5,23.5z"/>
<path class="st0" d="M2037.8,101.8c-0.8,0.6-1.7,0.3-2.6,0.3c-5.7-0.2-11.4-0.4-17.1-0.2c-3.1,0.1-6.2,0.2-9.3,0.7
	c-0.6,0.1-1.3,0.1-1.9,0.1c-1,0-1.4-0.5-1.3-1.4c0.5-3.2,0.9-6.4,1.4-9.6c1.2-7.8,2.4-15.6,3.6-23.4c1.2-7.7,2.4-15.3,3.6-23
	c1.2-7.7,2.3-15.3,3.4-23c1-7,2.1-14.1,3.2-21.1c0-0.3,0.1-0.5,0.2-0.7c0.1-0.2,0.3-0.4,0.5-0.5c0.2-0.1,0.4,0,0.5,0.4
	c0.6,3.6,1.2,7.1,1.8,10.7c1.5,9,3,18.1,4.4,27.1c1.7,10.8,3.3,21.7,5,32.6c1.1,6.8,2.3,13.5,3.3,20.3c0.5,3.3,1,6.6,1.4,10
	C2038,101.3,2037.9,101.5,2037.8,101.8z"/>
<path class="st0" d="M1805.7,146.9c8.3,2,16.6,3.9,24.9,6c22.3,5.6,44.6,11.4,66.8,17c1.9,0.5,3.8,0.8,5.7,1.3
	c2,0.5,2.1,0.8,1.3,2.6c-1,2.2-2,4.5-3.1,6.7c-2.8,6.1-5.5,12.3-7.2,18.8c-0.3,1.1-0.8,1.3-1.7,0.8c-1.2-0.7-2.5-1.4-3.7-2.1
	c-23.6-14.2-47.3-28.3-70.9-42.5c-4.3-2.6-8.6-5.2-13-7.8C1804.7,147,1804.8,146.6,1805.7,146.9z"/>
<path class="st0" d="M1792.1,239.8c0.9-0.8,2-0.8,3-0.9c10.2-1.7,20.4-3.3,30.6-5.1c9.8-1.6,19.6-3.4,29.4-5
	c8.4-1.4,16.8-2.8,25.2-4.2c2.4-0.4,4.8-0.8,7.2-1.2c0.8-0.1,1.3,0.3,1.2,1c0,1.9,0,3.9-0.3,5.8c-0.9,7.2-0.2,14.5,0.4,21.7
	c0,0.4,0.1,0.8,0.2,1.2c0.2,2.3-0.3,2.8-2.5,2.5c-11.7-1.9-23.4-3.9-35.2-5.8c-10.1-1.7-20.1-3.3-30.2-5c-9.3-1.5-18.6-3.1-27.9-4.6
	C1792.9,240.1,1792.5,239.9,1792.1,239.8z"/>
<path class="st0" d="M2107,19.6c-2.2,10.4-4.3,20.7-6.6,31.1c-4.5,20.5-9.1,41.1-13.7,61.6c-0.2,1-0.5,2-0.9,3.2
	c-4.8-1.5-9.1-3.8-13.7-5.4c-4.6-1.6-9.3-3.1-14.1-4.7c15.7-29.5,32.5-58.1,48.4-87.3C2107.6,18.1,2107.4,18.8,2107,19.6z"/>
<path class="st0" d="M2174.6,58.5c-9.5,17.4-19.6,34.4-29.5,51.5c-6,10.3-11.8,20.6-17.7,30.9c-0.7,1.2-1.4,2.4-2.2,3.7
	c-1.9-1.1-3.1-2.6-4.5-3.9c-1.4-1.3-2.8-2.7-4.2-4c-1.5-1.4-3.1-2.7-4.7-4c-1.5-1.2-3-2.5-4.6-3.6c-1.5-1.2-3.1-2.3-4.7-3.4
	c0.4-1.1,1.3-1.7,2-2.4c12.8-12.1,25.6-24.1,38.4-36.2c7.2-6.8,14.5-13.7,21.7-20.5c3.1-2.9,6.2-5.9,9.3-8.8
	C2174.5,57.5,2174.8,57.7,2174.6,58.5z"/>
<g>
	<path class="st0" d="M91.2,321.4c3.3,0,5.5,0.5,6.9,1.5c1.4,1,2.4,3,3.1,5.9h3.7v-29.9h-3.7c-0.7,2.9-1.7,4.9-3.1,5.9
		c-1.4,1-3.6,1.5-6.9,1.5H25.6V252h100c3.3,0,5.5,0.5,6.9,1.5c1.4,1,2.4,3,3.1,5.9h3.7v-30h-3.7c-0.8,3-1.8,5-3.1,6
		c-1.3,1-3.6,1.5-6.9,1.5H0v3.7c2.9,0.8,4.9,1.8,5.9,3.1c1,1.3,1.5,3.6,1.5,6.9v131c0,3.3-0.5,5.5-1.4,6.8c-1,1.3-3,2.4-6,3.1v3.7
		h127.1c3.2,0,5.5,0.5,6.9,1.5c1.4,1,2.4,3,3.2,5.9h3.7v-29.9h-3.7c-0.7,2.9-1.7,4.9-3.1,5.9c-1.4,1-3.7,1.5-6.9,1.5H25.6v-58.8
		H91.2z"/>
	<path class="st0" d="M299.4,285.8v96.5c0,3.2-0.5,5.4-1.5,6.8c-1,1.4-3,2.4-5.9,3.2v3.1h31.4v-3.1c-2.9-0.8-4.9-1.8-5.9-3.2
		c-1-1.4-1.5-3.6-1.5-6.8V278.5c0-3.2,0.5-5.4,1.5-6.8c1-1.4,3-2.4,5.9-3.2v-3.1h-39.8v3.1c3.9,1.1,5.8,2.9,5.8,5.1
		c0,1.2-0.9,3.6-2.8,7.3l-41.3,83l-41.1-83c-1.9-3.9-2.9-6.4-2.9-7.3c0-2.2,1.9-4,5.8-5.1v-3.1h-39.5v3.1c2.9,0.8,4.9,1.8,5.9,3.1
		c1,1.3,1.5,3.6,1.5,6.9v103.7c0,3.2-0.5,5.4-1.5,6.8c-1,1.4-3,2.4-5.9,3.2v3.1h28.7v-3.1c-2.9-0.8-4.9-1.8-5.9-3.2
		c-1-1.4-1.5-3.6-1.5-6.8v-96.5l55.3,109.6L299.4,285.8z"/>
	<path class="st0" d="M375.3,278H421c8.4,0,14.5,0.3,18.4,1c3.9,0.7,7.3,1.9,10.1,3.8c5.4,3.6,8.1,9.8,8.1,18.3
		c0,8.7-2.7,14.9-8.1,18.5c-2.8,1.8-6.2,3.1-10.1,3.8c-3.9,0.7-10,1-18.3,1h-45.7V278z M423.2,337c9.5,0,16.7-0.4,21.6-1.3
		c4.9-0.9,9.3-2.5,13.3-5c4.9-2.9,8.7-6.9,11.3-12.1c2.7-5.2,4-11,4-17.4c0-6.4-1.3-12.3-4.1-17.6c-2.7-5.3-6.4-9.3-11.1-12.1
		c-3.9-2.4-8.4-4-13.3-4.9c-4.9-0.9-12.2-1.3-21.8-1.3h-71.9v3.5c2.7,0.7,4.6,1.6,5.7,2.7c1.1,1.1,1.7,2.8,1.7,5v106.7
		c0,2.3-0.5,4.1-1.6,5.3c-1.1,1.2-3,2.2-5.8,3v3.7h31.1v-3.7c-2.6-0.8-4.5-1.8-5.5-3c-1-1.2-1.6-3-1.6-5.3V337H423.2z"/>
	<path class="st0" d="M614.9,293.5c10,9.8,15.1,22.3,15.1,37.6c0,14.1-5,26.1-15.1,36.2c-11.5,11.6-26.8,17.4-45.8,17.4
		c-19,0-34.3-5.8-45.8-17.4c-10.1-10.1-15.1-22.4-15.1-36.9c0-14.6,5-26.9,15.1-36.9c11.5-11.6,26.7-17.4,45.6-17.4
		C587.9,276.2,603.3,282,614.9,293.5z M534.6,268.3c-14.1,5.3-25,13.6-32.8,25.2c-7.3,10.9-11,23.2-11,36.9
		c0,20.3,7.5,36.8,22.6,49.7c14.1,12.1,32.7,18.1,55.7,18.1c30.8,0,53.2-10.3,67.2-30.9c7.4-10.9,11.1-22.9,11.1-36
		c0-21-7.5-37.8-22.6-50.6c-14.2-12.1-32.8-18.1-55.9-18.1C555.7,262.8,544.2,264.6,534.6,268.3z"/>
	<path class="st0" d="M696.1,278h40.7c11.3,0,20.3,1.1,26.9,3.3c6.6,2.2,12.2,5.8,16.7,11c8.1,9.5,12.2,22.2,12.2,38.1
		c0,8.9-1.4,17.1-4.3,24.5c-3.9,9.8-9.8,17-17.7,21.6c-7.1,4.2-18.4,6.3-33.8,6.3h-40.7V278z M678.1,389c-1,1.4-3,2.4-6,3.2v3.1
		h65.7c16.6,0,29.6-2.1,38.8-6.2c9.2-4.1,16.9-11.1,22.9-21.1c7-11.4,10.4-24,10.4-37.7c0-11.7-2.6-22.7-7.9-33.1
		c-6-12-14.4-20.6-25.1-25.8c-8.6-4.1-21.7-6.2-39.2-6.2h-65.7v3.1c3,0.8,5,1.8,6,3.2c1,1.4,1.4,3.6,1.4,6.8v103.7
		C679.5,385.4,679,387.7,678.1,389z"/>
	<path class="st0" d="M909.4,334.5c3.2,0,5.4,0.5,6.8,1.5c1.4,1,2.4,3,3.2,5.9h3.1v-27.5h-3.1c-0.8,2.9-1.8,4.9-3.1,5.9
		c-1.3,1-3.6,1.5-6.8,1.5h-50.7V278h79.6c3.3,0,5.5,0.5,6.8,1.5c1.3,1,2.4,3,3.1,5.9h3.1V258h-3.1c-0.8,2.9-1.8,4.9-3.1,5.9
		c-1.3,1-3.6,1.5-6.8,1.5H834.6v3.1c3,0.8,4.9,1.8,5.9,3.1c1,1.3,1.5,3.6,1.5,6.9v103.7c0,3.2-0.5,5.4-1.4,6.8c-1,1.4-3,2.4-6,3.2
		v3.1h104.4c3.3,0,5.5,0.5,6.8,1.5c1.3,1,2.3,3,3,5.9h3.2v-27.5h-3.2c-0.7,3-1.7,4.9-3.1,5.9c-1.4,1-3.7,1.5-6.9,1.5h-80.3v-48.2
		H909.4z"/>
	<path class="st0" d="M1000.4,278h51.3c12.6,0,21.5,1.9,26.8,5.7c5.7,4.1,8.6,10.2,8.6,18.3c0,8.4-3.1,14.3-9.2,17.7
		c-2.8,1.6-6.2,2.6-10.2,3.2c-4,0.6-10,0.9-17.9,0.9h-49.4V278z M1047.6,336.5l29.9,47.2c1.8,2.8,2.7,4.6,2.7,5.6
		c0,1.3-1.5,2.3-4.5,2.9v3.1h32.2v-3.1c-2.9-0.4-4.8-0.9-6-1.5c-1.1-0.6-2.3-1.8-3.4-3.6l-32.6-51.8c12.2-1.1,21.3-4.6,27.6-10.4
		c6.3-5.8,9.4-13.6,9.4-23.6c0-12.2-4.5-21.5-13.5-27.8c-4.1-2.9-8.9-5-14.4-6.3c-5.5-1.2-12.7-1.9-21.4-1.9h-77.2v3.1
		c2.9,0.8,4.9,1.8,5.9,3.1c1,1.3,1.5,3.6,1.5,6.9v103.7c0,3.2-0.5,5.4-1.4,6.8c-1,1.4-3,2.4-6,3.2v3.1h31.4v-3.1
		c-2.9-0.8-4.9-1.8-5.9-3.2c-1-1.4-1.5-3.6-1.5-6.8v-45.7H1047.6z"/>
	<path class="st0" d="M1165,346.2l28.7-63.7l28.4,63.7H1165z M1237.6,380.6c1.9,4.2,2.8,6.7,2.8,7.7c0,1.8-1.8,3.2-5.4,3.9v3.1h33.8
		v-3.1c-3.1-0.5-5.7-1.8-7.7-4.1c-2-2.2-4.4-6.3-7.2-12.3l-41.3-89.9c-3.1-6.8-4.6-10.9-4.6-12.4c0-2.5,1.9-4.1,5.8-5v-3.1H1176v3.1
		c3.9,0.6,5.8,2.3,5.8,5c0,1.9-1.2,5.5-3.6,10.7l-43,93.5c-2.4,5.4-4.5,9-6.2,10.9c-1.8,1.9-4.2,3.1-7.3,3.7v3.1h32v-3.1
		c-4-1.1-6-2.9-6-5.6c0-1.3,0.6-3.3,1.9-6l9.8-21.8h68.2L1237.6,380.6z"/>
	<path class="st0" d="M1387.1,378.7c3.7,4.2,5.6,7.1,5.6,8.7c0,2.2-2,3.7-6,4.8v3.1h34v-3.1c-3-0.8-5-1.8-6-3.2
		c-1-1.4-1.4-3.6-1.4-6.8V278.5c0-3.2,0.5-5.5,1.5-6.8c1-1.3,3-2.4,5.9-3.1v-3.1H1392v3.1c3,0.8,4.9,1.8,5.9,3.1
		c1,1.3,1.5,3.6,1.5,6.8v90.3l-76.7-85.9c-2.9-3.2-4.4-6-4.4-8.4c0-2.7,2-4.7,6-6v-3.1h-42.2v3.1c2.9,0.8,4.9,1.8,5.9,3.1
		c1,1.3,1.5,3.6,1.5,6.8v103.7c0,3.2-0.5,5.4-1.4,6.8c-1,1.4-3,2.4-6,3.2v3.1h28.7v-3.1c-3-0.8-5-1.8-6-3.2c-1-1.4-1.4-3.6-1.4-6.8
		v-96.5L1387.1,378.7z"/>
	<path class="st0" d="M1472.5,278h40.7c11.3,0,20.3,1.1,26.9,3.3c6.6,2.2,12.2,5.8,16.7,11c8.1,9.5,12.2,22.2,12.2,38.1
		c0,8.9-1.4,17.1-4.3,24.5c-3.9,9.8-9.7,17-17.6,21.6c-7.1,4.2-18.4,6.3-33.8,6.3h-40.7V278z M1454.5,389c-1,1.4-3,2.4-6,3.2v3.1
		h65.7c16.6,0,29.6-2.1,38.8-6.2c9.2-4.1,16.9-11.1,22.9-21.1c7-11.4,10.4-24,10.4-37.7c0-11.7-2.6-22.7-7.9-33.1
		c-6-12-14.4-20.6-25.1-25.8c-8.6-4.1-21.7-6.2-39.2-6.2h-65.7v3.1c3,0.8,5,1.8,6,3.2c1,1.4,1.4,3.6,1.4,6.8v103.7
		C1455.9,385.4,1455.4,387.7,1454.5,389z"/>
	<path class="st0" d="M1732.1,293.5c10.1,9.8,15.1,22.3,15.1,37.6c0,14.1-5,26.1-15.1,36.2c-11.5,11.6-26.8,17.4-45.8,17.4
		c-19,0-34.3-5.8-45.8-17.4c-10.1-10.1-15.1-22.4-15.1-36.9c0-14.6,5-26.9,15.1-36.9c11.5-11.6,26.7-17.4,45.6-17.4
		C1705.1,276.2,1720.5,282,1732.1,293.5z M1651.8,268.3c-14.1,5.3-25,13.6-32.8,25.2c-7.4,10.9-11,23.2-11,36.9
		c0,20.3,7.5,36.8,22.6,49.7c14.2,12.1,32.7,18.1,55.7,18.1c30.8,0,53.2-10.3,67.2-30.9c7.4-10.9,11.1-22.9,11.1-36
		c0-21-7.5-37.8-22.6-50.6c-14.2-12.1-32.8-18.1-55.9-18.1C1672.9,262.8,1661.4,264.6,1651.8,268.3z"/>
</g>
<g>
	<path class="st0" d="M587.1,508.5c-0.2,0-0.4-0.3-0.6-0.9c0.6-1.9,1.3-2.9,2.3-2.9c0.4,0,0.6,0.1,0.6,0.3v0.3l-1.4,2.6
		C587.7,508.3,587.5,508.5,587.1,508.5z M451.7,475.2c-0.8,0.2-1.8,0.6-3.1,1.1c-1.3,0.6-3.1,1.3-5.3,2.1c-2.3,0.8-3.9,1.7-4.8,2.7
		l-4.2,2c-7.5,3-11.8,4.9-12.9,5.6c-1,0.8-2.2,1.4-3.5,2c-8.1,4-12.1,8.5-12.1,13.4c0,3.5,0.7,5.3,2.2,5.5c1.5,0.2,2.8,0.6,4,1.2
		c1.2,0.6,2.1,0.9,2.7,0.9c1.7,0,3.8-1,6.1-3.1c2.3-2.1,3.5-3.9,3.5-5.5v-1.7c1-0.5,2.1-1.3,3.5-2.4c1.3-1.1,3.3-2.3,5.9-3.7
		c2.6-1.3,8.7-5.2,18.5-11.7c0.3,0,0.6-0.3,1-0.9c0.4-0.6,1.1-1.6,2.2-2.8h2.8l0.6-0.3c1.3-1.2,2.9-1.9,4.7-2.1
		c1.8-0.1,3.9-0.9,6.2-2.2c2.4-1.3,3.7-1.9,3.8-1.9l3.4-0.7c1.9-1.4,5.2-3.2,9.7-5.5l8.4-1.6c0.4,0,0.6,0.7,0.6,2.2
		c0,1-0.2,2-0.6,3.2l-2.5,3.6c-0.4,1.7-1,3.5-1.9,5.3c-0.9,1.8-1.3,2.8-1.3,3v1.5l-2.5,3.3c-1.2,1.2-1.9,2-2.3,2.6l-0.3,2.7
		l-3.2,6.5c-0.3,0.2-0.4,0.4-0.4,0.6c0,0.4,0.3,0.6,1,0.6c0.7,0,1.5-0.5,2.3-1.4c0.4,0,0.6,0.2,0.6,0.6c0,1.2-0.8,1.7-2.3,1.7h-0.6
		c-0.7-0.4-1.2-0.6-1.6-0.6c-1.2,0-3,2.8-5.2,8.5c-1.8,0.9-2.9,2-3.3,3.5c-0.3,1.4-0.6,2.4-0.7,2.8c-0.1,0.4-0.2,0.4-0.2-0.1
		c-0.6,1.1-0.9,2-1,2.9c-0.1,0.9-0.7,1.6-1.7,2.2c-1.1,0.6-2.1,1.8-3,3.7l-3.8,6.6c-1.2,3.2-1.9,5.1-2.3,5.9
		c-2.4,1.9-3.6,3.8-3.6,5.6v0.6l0.6,1.7c-0.6,1.1-1.4,2-2.5,2.9c-1.1,0.9-1.6,1.5-1.6,1.9l0.9,3.2c-0.6-0.2-1-0.3-1.1-0.3
		c-0.6,0-2,1.9-4.2,5.6l0.3,2.5v0.3c0,0.4-0.1,0.6-0.3,0.6c-2.9,2.2-4.7,3.6-5.6,4.3c-0.8,0.6-1.2,2.2-1.2,4.8
		c0,0.2-0.4,1.2-1.3,3.1c-0.9,1.9-1.4,3.4-1.7,4.5c-0.2,1.1-0.9,2.6-1.9,4.6c-1.1,2-1.6,3.6-1.6,5l1.7,5c0,0.8,0.6,1.5,1.7,2.2
		c1.1,0.7,1.9,1.5,2.5,2.6l5.9,1.2c2.3-1,4.5-1.9,6.5-2.8c2-0.9,4.2-2.7,6.6-5.4c2.4-2.7,5-6.2,7.7-10.5c2.7-4.3,4.3-6.7,4.9-7.2
		l1.7-2.2c2.5-2.1,3.7-4.1,3.6-5.9l0.9-0.6h0.9c0.4,0,1-0.6,1.8-1.7c0.8-1.2,2-2.5,3.5-4c1.5-1.5,2.3-2.8,2.3-4l-0.6-3.3
		c0.2-0.2,0.4-0.3,0.6-0.3c1.5-1,2.4-1.4,2.7-1.4h2.6c0.6-1.2,0.9-2.3,1.1-3.3c0.2-1.1,0.7-1.8,1.7-2.3c2.3-1,3.5-2,3.5-3l-0.3-2.6
		c0-0.6,1.3-1.4,3.9-2.3l1.7-1.3c0.4-0.6,1.2-1.6,2.4-3.2c1-0.4,1.6-1.1,2-2c0.6-0.4,1.3-0.9,2-1.6l4.2-5.2c3-2.3,4.8-4.7,5.3-7.2
		l3.2-1.2c1.2-0.2,2.2-0.9,3-2c0.8-1.2,1.9-2.6,3.5-4.2l2.2-1.2l2.3-2.3c3.2-1.6,4.9-2.7,5.3-3.2c0.4-0.5,1.2-1.2,2.3-2.2l3.9-2.7
		c1.7-2.1,3.8-3.5,6.2-4l2-1.9c1.2-1.2,2.2-1.9,2.7-2.3l4-2.3c1.8-2.2,3.3-3.6,4.5-4.2c5.7-1.7,8.5-3.4,8.5-5
		c0.9-0.8,1.6-1.2,2.2-1.2c0.2,0,1.8,0.6,4.8,1.7l-1.3,3.3c-1.8,2.7-3.4,5.1-4.6,7.2l-4.2,7.2v2c-6.7,11.3-10.6,17.1-11.7,17.5
		c-1.1,0.4-1.7,1.3-1.9,2.8c-0.2,1.5-0.7,2.8-1.7,4c-0.9,1.2-1.6,2.3-2,3.2l-0.3,2.3c-0.8,1.4-1.9,3.9-3.5,7.3
		c0,1.5-0.5,2.7-1.4,3.6c-0.9,1-1.4,1.7-1.4,2.3l0.6,3l-1.1,3.8c1.1,4.2,2.7,6.9,5,8.1c2.3,1.1,3.5,1.7,3.8,1.7
		c0.2,0,0.6-0.2,1.2-0.6c0.6-0.4,1-0.6,1.3-0.6c0.9,0,3.3-1.2,7-3.5c3.8-2.4,5.7-4,5.8-4.9c0.1-0.9,0.2-1.6,0.4-1.9l1.2-0.6l0.9-1.5
		c0-0.5,0.9-1,2.8-1.7c0.3-2.3,1.5-4.4,3.6-6.3c2.1-1.9,3.5-3.4,4.2-4.5c0.7-1.1,1.3-1.7,1.7-1.9c0.5-0.2,2.1-2,4.9-5.2
		c2.8-3.2,4.5-5.5,5.1-6.8c0.6-1.3,1.6-2.4,2.8-3.3c1.2-0.9,2-1.4,2.2-1.6l6.2-6.5c2.9-1.6,4.3-3.2,4.3-4.8c0-0.2-0.4-0.7-1.2-1.4
		c0.8-1.1,1.7-1.6,2.7-1.6c0.2,0,1,0.2,2.3,0.7l1.7-2.2c1.6-1.5,2.5-2.8,2.5-3.8c0-0.4,0.7-0.9,2-1.6l3.3-2.3
		c2.2-2.5,5.7-5.7,10.4-9.6c4.7-3.9,7.8-6.4,9.2-7.5c1.4-1.1,2.5-1.7,3.4-1.7c0.9,0,1.9-0.5,3-1.6l1.4-2.2c3.8-1.7,5.6-2.9,5.6-3.5
		c1.1-2.2,3.1-3.3,6.2-3.3c0.4,0,0.6,0.2,0.6,0.6c0,0.5-0.5,1.8-1.5,3.8c-1,2.1-2.1,3.7-3.2,4.8c-1.2,1.1-1.7,2.1-1.7,2.9v0.6
		c0.8,1,1.1,1.7,1.1,1.9c0,1.1-1.2,1.9-3.7,2.6l-1,1.2l-0.9,2.2c-0.2,0.7-0.4,1.2-0.5,1.5c-0.2,0.3-0.2,0.5-0.3,0.6
		c-0.1,0.1-0.1,0-0.1-0.1l-2,2.3l-4.5,6.8c-1.6,2-3,4-4,6c-1,2-1.9,3.2-2.4,3.8l0.3,2.3c-2.6,2.2-3.9,4.7-3.9,7.5
		c-2.5,1.6-3.7,3.3-3.7,4.9l0.6,2.5l-0.6,1.2c-0.6-0.2-1-0.3-1.5-0.3c-2,0-3,1.3-3,3.9c0,0.2,0.5,0.9,1.4,2h-2
		c-0.1,0-1.1,1.4-3.2,4.2c-0.7,1.5-1.5,3.2-2.5,4.9c-1.7,1.1-2.7,2.5-3,4.2c-0.3,1.7-0.6,2.8-1.1,3.2c-0.4,0.4-0.7,1-0.8,1.7
		c-0.1,0.7-0.5,1.5-1.3,2.5c-0.8,1-1.2,2.3-1.3,4.1c-0.1,1.8-0.3,3.3-0.7,4.6c-0.4,1.3-0.6,2.1-0.6,2.5l-0.3,3.9
		c-0.2,0.6-0.3,1.4-0.3,2.3l0.3,3.6l-0.3,2.3l0.9,2.9c0.6,2.2,1.2,3.8,2,4.8l0.9,0.9c0.6,0.9,1.2,1.5,1.8,2c0.6,0.5,1,0.8,1.2,1h2.3
		l0.3,0.3v2.6c1.4,0,2.9,0.8,4.7,2.5c1.8,1.7,3.9,2.5,6.3,2.5c3.8,0,6.1-0.6,7.1-1.9c1-1.3,1.5-3.9,1.5-7.7c0-0.5-0.4-1.5-1.2-3
		c-0.8-1.5-2.1-4.5-3.9-8.8c0.5-2.4,0.7-3.9,0.7-4.5c0-0.6,0.1-1.2,0.3-1.7c0.2-0.6,0.3-1.3,0.4-2.2c0.1-0.9,0.8-2.5,2.2-4.9
		c1.3-2.4,2.1-4.3,2.2-5.7c0.1-1.4,0.3-2.3,0.6-2.8c0.4-0.5,0.6-1,0.7-1.4c0.1-0.5,0.4-1,1-1.4c0.6-0.5,0.9-1.1,0.9-1.7
		c0-0.6-0.2-1.1-0.6-1.6c-0.4-0.5-0.6-0.8-0.6-1v-0.6l2.3,0.3c0.8-0.5,1.4-2.5,2-6.2l1.3-0.6c1-2,1.9-3.4,2.8-4.3
		c0.9-0.8,2.2-2.7,3.8-5.7c1.6-3,2.5-5.1,2.5-6.3c1.3-1.2,2.3-2.4,3-3.7c0.6-1.3,1.5-2.5,2.7-3.7c1.2-1.2,2.1-3,2.5-5.6
		c3.7-2.9,5.6-5,5.6-6.5v-1.7c1.2-0.9,2-1.8,2.5-2.7l1.4-4.3c1.5-1.6,2.4-2.6,2.7-3c0.2-0.4,1-1.5,2.2-3.4c1.2-1.9,1.9-3,1.9-3.4
		l-0.3-2.6c0-0.2,1.2-2.3,3.6-6.2l-0.3-8.4l0.3-2.3c0-10.3-4.6-15.4-13.7-15.4c-0.4,0-1.2,0.2-2.3,0.6l-5,0.7
		c-2.4,1.4-4.6,2.5-6.5,3.1c-1.9,0.6-4.1,1.9-6.5,3.7l-1.1,0.6c-1.4,0.4-2.6,0.9-3.6,1.5l-1.4,1.4l-1.2,0.6
		c-2.4,2.2-4.3,3.8-5.5,4.8c-1.2,1-2,1.9-2.2,2.8c-0.2,0.9-1.3,1.9-3.3,2.8l-3.2,2c-2.2,0.8-4.2,2.9-5.9,6.5l-3.9,2.2l-5.5,5.2
		c-1.8,1.6-2.7,3.2-2.7,4.8c-3.7,1.3-6.8,4.2-9.3,8.6l-3.2,2.6c-2.4,1-3.6,2.4-3.6,4.5c0,1.9-1.5,3.1-4.5,3.5v-2l-0.3-0.9
		c1.1-1.7,1.7-3.1,2-4.1c0.3-1,1.3-2.8,2.9-5.3c1.7-2.6,2.7-4.7,3.1-6.6l1.2-4.6c0.4-0.6,0.7-1.2,1-1.8c0.3-0.6,0.5-1.3,0.8-2
		c0.3-0.7,0.4-1.5,0.6-2.3c0.2-0.8,0.3-1.7,0.4-2.6c0.1-0.9,0.1-1.8,0.1-2.7s0.2-1.7,0.6-2.4l1-1.9c0-0.6-0.6-1.1-1.9-1.7v-1.1
		l-0.3-2.5v-0.6l-1.4-1.4c-1.9-2.6-4-4.4-6.2-5.3l-2.6-0.6c-1.8-0.6-3.2-0.9-4.2-0.9c-0.8,0-1.5,0.2-2.2,0.6
		c-0.7,0.4-1.5,0.6-2.4,0.8c-0.9,0.1-3,1.1-6.5,2.7c-3.5,1.7-5.5,3.2-6.2,4.7c-0.7,1.4-2,2.2-4,2.3c-2,0.1-3.7,1.2-5.3,3.3
		c-1.5,2.1-3.1,3.4-4.8,3.7c-1.6,0.3-2.9,1-3.9,2.1c-1,1.1-1.4,2.4-1.4,4v1.4c-0.3,1-0.6,1.4-0.9,1.4h-0.3c-0.8-0.6-1.3-0.9-1.6-0.9
		c-1.1,0-2.2,0.7-3.2,2c-1,1.3-2.5,2.4-4.7,3.3c-2.2,0.9-3.2,2.8-3.2,5.7c-0.5,0.5-1.5,1.3-3,2.6h-0.9l-1.2,0.3
		c-0.4,1.3-2.4,3.2-6.2,5.6l-7.1,8.7c-0.4,0.2-1.1,0.8-2.2,1.7l-1.2,1.7c-0.6,0.4-1.3,1.1-2.2,2.2c-0.9,1.1-1.9,1.9-3.2,2.4
		c-1.3,0.5-2,1.1-2.2,1.9c-1.8,4.1-3.5,6.5-4.9,7.1c-1.5,0.6-2.5,1.2-3.1,1.8c-0.6,0.6-1.8,1.6-3.7,3.1c-1.8,1.5-2.8,2.6-3,3.4
		c-0.9,0.2-1.9,1-3,2.3l-1.2,2c-1.6,1.2-2.5,1.9-2.5,2.2c0,2.3-1.5,4-4.6,5l0.3-1c1.4-2.2,2.4-4.6,3-7.1c0.5-2.5,1.5-4.3,2.9-5.3
		c0-0.9,1.5-3.8,4.6-8.8c3-5,4.9-7.9,5.6-8.7c0.7-0.8,1.6-2.4,2.7-4.8c1.1-2.5,1.9-4.3,2.5-5.4c3.4-3.4,5.4-5.9,6.2-7.6
		c0.8-1.7,1.7-3.1,2.7-4.4c1-1.3,1.5-2,1.5-2.2l2-5.3c3.9-4.4,5.9-8.7,5.9-12.7c0-0.4-0.2-1-0.7-1.8c-0.5-0.8-0.7-1.4-0.7-1.8
		c-2.2-6.7-5.9-10.1-11-10.1l-3.2-0.3l-4,0.7c-3.7,0.4-5.8,0.7-6.3,0.9c-1.4,0.8-4.2,1.7-8.6,2.9c-4.4,1.1-7.2,2.2-8.6,3.1
		c-1.3,0.9-2.1,1.4-2.3,1.4h-2.8c-0.6,0.4-1.5,1.1-2.9,2.3l-0.6,0.6c-4.9,1.6-7.5,2.6-7.7,2.7c-2.2,2.7-3.9,4-5.1,4h-3.9l-0.9,0.3
		L451.7,475.2z"/>
	<path class="st0" d="M698.6,578l0.6-5.3l0.6-1.9c0-0.4-0.3-1-1-1.7c-0.7-0.8-1-1.2-1-1.4c0-1,0.5-1.7,1.5-2.4
		c1-0.6,1.7-1.2,1.9-1.8c0-1.2,0.5-3.1,1.6-5.6l2.6-6.5c1.5-1.5,2.8-2.9,3.7-4l1.6-1.9c2-1.6,3-3.2,2.9-4.8l1.7-1.7
		c1.6,0,3-0.6,4-1.9c1.1-1.2,1.7-1.9,1.9-1.9h1.9c0.6-0.5,1.2-1.3,1.7-2.5c0.6-1.2,1.2-1.7,1.7-1.7c0.2,0,1.3,0.5,3.3,1.4
		c6.1-2.2,9.5-4,10.2-5.3c1.9-0.8,3-1.2,3.3-1.2c0.6,0,0.9,0.3,0.9,0.9c0,0.4-1.1,1.5-3.4,3.4c-2.3,1.9-3.4,3.9-3.4,6.1
		c0,3.4,1,5.6,3.1,6.8c2.1,1.2,3.1,2.7,3.1,4.8c0,1.3-0.3,3.2-0.9,5.6l-2.7,5.2c0,1.1-0.2,1.8-0.6,2.2l-1.2,1.7
		c-0.4,1.3-1.1,2.4-2.2,3.2c-1,0.8-2,2-2.8,3.6c-0.8,1.6-2.2,2.9-4.2,3.8c-2,1-2.9,2.6-2.9,4.8l-0.6,0.3h-2c-0.2,0-0.6,0.7-1.4,2.2
		c-0.7,1.4-1.6,2.2-2.7,2.2c-1.1,0-2.5,0.7-4.2,2.2c-1.8,1.5-4.2,2.2-7.1,2.2c-1,0-2.4-0.2-4.3-0.6l-0.7-0.3h-2.3l-0.3-0.3l-0.6-3.3
		L698.6,578z M746.5,577.5c0.3-0.5,0.9-1,1.7-1.5c0.8-0.5,1.2-1.3,1.4-2.3c0.2-1,0.7-2,1.4-2.7c0.8-0.8,1.5-1.9,2.1-3.2
		c0.6-1.4,1-2.2,1.2-2.5l0.9-1.2c0.2-0.6,0.6-1.1,1.3-1.4c0.7-0.4,1.1-1.2,1.4-2.4l1.2-4l-0.4-2.9c0-0.3,0.5-0.9,1.6-1.9l0.3-1.1
		l-0.3-11.8l-1.6-5c-1.5-2.3-2.7-4.2-3.5-5.6c-2.2-0.8-3.3-1.4-3.3-1.7c0-0.2,0.8-1.5,2.5-3.9c0-2.9-0.9-4.8-2.8-5.9
		c-1.9-1.1-3.7-1.9-5.5-2.5c-1.8-0.6-2.8-1-3-1.2c-0.7-0.4-2.6-1-5.6-1.9l-4.2-1.4c-0.8,0-1.8,0.4-3,1.1c-1.3,0.7-2.5,1.3-3.6,1.6
		c-1.2,0.3-2.4,0.7-3.8,1.2c-1.4,0.4-2.4,0.6-3.2,0.6c-2.5,0-6.5,1.4-11.9,4.1c-5.4,2.7-8.7,4.8-9.8,6.1c-1.1,1.3-2.7,2.3-4.9,3
		c-2.2,0.7-3.9,1.5-5.3,2.6c-1.2,2.1-2.7,3.4-4.5,3.8c-3.1,2.1-5.1,3.9-6,5.4c-0.9,1.5-2,2.4-3.3,2.7c-1.3,0.3-2.7,1.6-4.3,3.9
		c-1.5,2.3-2.3,3.8-2.3,4.5l0.9,3.6l-0.3,2.6c0,1.4,0.9,2,2.6,2c1.6,0,2.8-0.9,3.5-2.7c0.7-1.8,1.1-2.8,1.3-3l1.7,0.6
		c0.8,0,1.3-0.5,1.7-1.6c0.3-1.1,1-1.7,2-2c1-0.3,1.9-1.1,2.9-2.6c1,0.8,1.3,1.4,1.2,1.9l-3.5,11.5v4.6c-0.6,1.2-1.1,2.1-1.4,2.5
		l0.3,3.2l-0.3,2.7v0.6c0,1.7,0.8,4.1,2.3,7.2c1.5,3.1,3.1,5.2,4.8,6.3l2,1.7c0.6,0.9,1.3,1.5,2.2,2c0.9,0.5,1.9,1.3,3,2.6
		c1.1,1.2,2.1,1.9,3.1,2c1,0.1,2,0.6,2.8,1.4c0.9,0.8,1.7,1.2,2.5,1.2c0.4,0,1.2-0.3,2.5-0.9l2.3,0.3c3,0,4.9-0.4,5.6-1.1
		c0.8-0.7,1.8-1.1,3-1.2c1.2-0.1,2.6-0.5,4-1.3c1.5-0.8,2.8-1.3,3.8-1.6c1.1-0.3,2.8-1.3,5.2-3.2l1.4,0.3c0.6,0,1.6-0.9,3-2.6
		c1.4-1.7,2.6-2.6,3.5-2.6c0.4,0,0.8,0.2,1.2,0.6l6.8-5.9C745.6,578.5,746.2,578,746.5,577.5z"/>
	<path class="st0" d="M812.3,596.3c0.2,0,0.6-0.2,1.3-0.7c0.7-0.4,2-0.7,4-0.8c2-0.1,3-0.9,3-2.3c0-1.4,0.5-2.2,1.4-2.2h0.3
		c1.6,1.1,2.6,1.7,3,1.7c0.2,0,1.8-1.3,4.8-3.9c2.3,0,3.9-0.8,4.8-2.3l2.6,0.6c4.7-3,7.3-5,7.9-6.1c0.5-1.1,0.9-1.8,1.2-2.1h2.2
		l2.9-1.9c1.4-1.4,2.5-2.1,3-2.2c1.1-0.2,3.4-2.1,7.1-5.8c0.6-1.3,1.1-2,1.5-2c0.6,0,1.3,0.5,2.3,1.4h0.4l2.9-3
		c2.8-2.8,5.2-4.8,7.4-5.9l0.6-0.9l2.2-0.3c0.3-0.3,0.5-0.5,0.6-0.6c0.1-0.2,0.1-0.2,0-0.2l0.3-2.6c0-0.4,0.2-0.7,0.6-0.9
		c3.2-1,4.8-3,4.8-6.2c0-0.3-0.5-1.7-1.6-4.2c1.6-0.2,2.5-1,2.5-2.5c0-1.9-0.9-2.9-2.7-2.9c-0.8,0-2.6,1-5.4,3.1
		c-2.8,2.1-4.4,3.7-4.6,4.9c-0.2,1.2-0.8,1.8-1.8,1.8l-1.7-0.3c-0.4,0-1.4,0.7-2.9,2l-0.6,0.6c-2.4,0.7-4.5,2.4-6.2,5
		c-1.1,0.4-1.8,0.8-2.2,1.3c-0.4,0.5-1.4,1.1-3,1.7c-1.6,0.7-3.1,1.6-4.6,2.7c-1.5,1.1-2.4,1.6-2.7,1.6h-2.2
		c-2.8,2.7-5.6,4.5-8.3,5.3c-2.7,0.8-4.7,2.1-5.8,3.8c-5.1,1.4-7.8,3-8.2,5l-1.3,0.3h-1.4c-1.4,1-2.1,1.6-2.3,1.6
		c-0.2,0-1,0.1-2.3,0.4c-1.3,0.3-3,0.6-5,0.9l-6.2,1h-2.2c-4.3,0-6.5-1.5-6.5-4.5l1.1-5l-0.3-3.2c0-0.4,0.5-1,1.4-1.8
		c0.9-0.8,1.4-1.5,1.4-2.1v-1.2c-0.2-1-0.3-1.5-0.3-1.7c0-0.8,0.6-1.7,1.9-2.7c1.3-1,2.3-1.9,3.2-2.7l4.3-7.1
		c0.8-0.6,1.4-1.5,1.8-2.7c0.4-1.2,1.4-2.6,2.9-4.1h0.9c0.9-0.2,2.3-0.8,4.2-1.9c0.8-1.4,1.9-2.4,3.5-3.2c1.6-0.8,2.7-1.5,3.4-2.2
		c0.7-0.7,1.6-1.2,2.7-1.6c1.1-0.3,2.4-1,4-2.1c0.5-1,0.9-1.6,1.2-2h0.3l1.2,0.3l1.3,1.1h0.3c1.4-0.9,3.5-1.6,6.2-2.2
		c2,0.9,4.5,1.6,7.4,2.2c1.2,1.4,2.1,2,2.9,2c2.2,0,4.6-1,7.1-3.1c2.5-2.1,3.8-3.9,3.8-5.4c0-0.4-0.5-2.1-1.4-5.3
		c-1-3.1-1.9-4.9-2.9-5.3c-1-0.4-2-0.9-3-1.5c-1-0.6-1.6-0.9-2-0.9c-1.1,0-2.2,0.6-3.3,1.7c-3.9-1.5-6.1-2.3-6.5-2.3
		c-1.5,0-2.8,0.4-3.9,1.2c-1.1,0.8-1.6,1.2-1.7,1.2c-0.2,0-0.4-0.1-0.6-0.3c-0.6-0.6-1.8-0.9-3.6-0.9c-1.9,0-3.5,1-4.6,2.9h-2.2
		c-1.7,0-4.5,1.3-8.2,3.8l-5.3,3.3c-1.3,1.6-2.8,3-4.5,4c-1.6,1-3,2.3-4,3.8c-1.4-0.3-2.9,0.6-4.5,2.7c-1.5,2.1-2.5,3.4-2.9,3.8
		l0.3,2.3c0,0.2-0.1,0.3-0.3,0.3c-2.5,1-4.7,3-6.6,6.2c-1.9,3.2-2.9,5.2-2.9,6.2v1.4c-2.4,0.9-4,3-4.8,6.3c-0.8,3.3-1.5,6-2.3,7.9
		c-0.8,2-1.2,3.4-1.2,4.4c0,0.7,0.1,1.1,0.3,1.3l1.2,3.5c1.1,5.8,3.1,8.9,6.2,9.5l0.9,1.2c0.5,2.6,1.8,4.2,3.9,4.8l-1.3,1.2
		c-9.6,7.1-14.4,11.8-14.4,14.1c0,0.8,0.2,2,0.6,3.6c1.6,1.5,2.5,2.5,2.5,2.9c0,0.8-0.4,1.7-1.3,2.7l-0.6,0.6
		c-0.9,2.1-2.5,3.7-5,4.8c-2.5,1.1-3.7,1.6-3.8,1.6l-7.7-0.3c-1.2,0-3,1.3-5.3,3.8c-2.3,2.5-3.4,4.5-3.4,5.8c0,2.6,2.1,4.1,6.2,4.5
		l3.9,0.9c1,0.6,1.7,0.9,2.3,0.9c1.8,0,3-0.1,3.5-0.4c0.5-0.3,0.9-0.4,1.3-0.4l2,0.3h1.3c1,0,3.5-1,7.5-3.1c4-2.1,6.5-3.6,7.3-4.7
		c0.9-1.1,1.5-1.8,1.9-2.2l1.9-1.9c0.8-1.2,1.7-2.2,2.9-3.2c1.2-1,2.2-2.4,3.1-4.4c0.9-2,1.4-3.2,1.4-3.7v-0.6c-2-3-3-4.5-3-4.6
		c0-0.7,0.5-1.3,1.4-2c0.9-0.7,1.5-1.2,1.8-1.6c0.3-0.4,0.8-0.8,1.6-1.3c0.8-0.5,1.2-0.8,1.4-1l1.3-1.6c1.9-1,3.5-1.8,4.6-2.6
		l2.7-2.9H812.3z"/>
	<path class="st0" d="M934.7,558.7c-0.5,0.7-1.8,1.5-3.9,2.5l-3,2.3c-3.7,2-6.3,3.5-7.9,4.5c-0.7,1.1-1.6,1.9-2.9,2.5
		c-1.2,0.6-2.1,1.2-2.6,1.7c-0.5,0.5-1,0.8-1.4,0.9c-0.5,0.1-0.9,0.3-1.3,0.7l-2.7,1.4c-1.2,0.4-1.9,0.8-2.3,1.2
		c-0.4,0.4-1.8,1.1-4.3,2.1c-2.5,1-4.1,1.5-4.8,1.5c-1.8,0-2.7-2.4-2.7-7.1c0-0.8,0.5-1.8,1.7-3.1c1.1-1.3,1.7-2.7,1.9-4.3
		c0.2-1.6,0.9-2.6,2-3c1.1-0.4,2.1-1,2.9-1.7l1-2.5c0-0.3,1.3-1.4,3.8-3.5c0.7-2.6,2.2-4.3,4.5-5c3.9-2.7,6.1-4.8,6.8-6.2
		c1.2,0,3-0.9,5.5-2.8c2.5-1.9,5.3-3.2,8.4-4c3.1-0.8,5.3-1.5,6.3-2.1c1.1-0.6,2.4-0.9,4-0.9l2.9,0.6l1.9-0.3l2,1l2.7-0.3l2.6,0.3
		l1.2-0.7h0.3c0.4,0,0.6,0.1,0.6,0.4c0,0.8-1.7,2.9-5.1,6.3c-3.4,3.5-6,5.9-7.9,7.2c-0.4,1.2-1.6,2.3-3.5,3.4
		c-2,1.1-3.1,2.7-3.5,4.8C936.1,557.3,935.2,558,934.7,558.7z M982.4,560.2l-1.4,0.6c-0.6,0.2-1.6,1.2-2.9,3c-1.4,1.8-3.6,3-6.7,3.8
		c-0.7-0.6-1-1.8-1-3.6l0.6-4l-0.3-3.6c0-0.8,0.4-1.7,1.2-2.7c0.8-1,1.2-1.8,1.2-2.4V551l2-5.9c0.2-1,0.5-1.8,0.9-2.6
		c5.6-5.6,8.4-11.5,8.4-17.7c0-5.3-2.1-7.9-6.2-7.9c-5.8,0-9.6,1.7-11.3,5.3c-1.8,3.5-3.2,5.3-4.1,5.3c-0.8,0-1.3-0.9-1.4-2.6
		c-0.6-8.3-3.9-12.4-9.8-12.4c-0.6,0-1.1,0.1-1.4,0.3l-2.3,1.2h-0.3c-1.4-0.8-2.4-1.2-2.7-1.2h-0.9c-4.7,2.4-7.3,3.6-7.7,3.6H935
		c-1.3,0-3,0.6-5.1,1.9c-2.2,1.3-4.4,2.3-6.6,3.1c-2.3,0.8-4.3,2.1-6.1,3.8c-1.8,1.7-3,2.7-3.5,2.9c-3.9,2-7.6,4.7-11,8.1l-4.3,4.3
		c-2.4,1.6-4,3.1-4.9,4.5c-0.9,1.4-2,2.7-3.5,4c-1.4,1.3-2.1,2.5-2,3.7l-1.4,1.9c-0.6,0.4-1.7,1.9-3.4,4.5c-1.7,2.6-2.5,4.2-2.5,4.5
		l0.3,3.9c-1.8,0-2.8,0.6-2.8,1.7l0.3,4.8v0.9c-0.2,0.4-0.3,1.2-0.3,2.3c0,2.4,0.4,4.3,1.3,5.6l1.4,5.9c0.3,2,2.2,3.8,5.6,5.2
		c3.5,1.4,6.5,2.2,9.1,2.2c3.2,0,8.6-2.5,16.3-7.6l0.9-0.9c2.2-1.1,3.9-2.1,5-2.9l11-8.9c1.3-1,2.5-2.2,3.3-3.7
		c0.9-1.5,1.4-2.3,1.6-2.5l2.7,0.3l1.4-1.4c0.5-0.7,1.3-1.2,2.6-1.7c1.2-0.4,2-1,2.2-1.7l0.6-0.9c1.2-0.8,2.1-1.6,2.9-2.6
		c0.5-1.8,1.1-3,1.9-3.6c1.3,0,2.5-0.5,3.5-1.4c1-1,1.7-1.4,2.1-1.4c0.4,0,0.6,0.3,0.6,0.9l-0.9,7.1c0,0.4,0.1,0.9,0.3,1.4
		c0.2,0.6,0.3,1.1,0.3,1.6c0,0.4-0.1,0.7-0.3,0.9c-0.2,0.2-0.3,0.5-0.3,0.9c0,0.4,0.2,0.9,0.7,1.4c0.5,0.6,0.7,1.1,0.7,1.4l-0.6,2.7
		c0,1.9,0.4,3.4,1.3,4.5c0.9,1.1,1.3,2,1.4,2.7c0.1,0.7,0.4,1.3,1,1.9c1.6,0.2,3.2,0.6,4.8,1.4c1.5,0.7,3.2,1.1,5,1.1
		c0.4,0,1.1-0.3,2.1-0.8c1-0.5,2.5-1.1,4.6-1.7c2.1-0.6,3.6-1.3,4.5-2.3l0.3-1.4c1.3-0.4,2.5-0.8,3.5-1.3c1.5-1.7,2.9-2.7,4.3-2.9
		c1.3-0.2,2.3-1.1,3-2.6c0.7-1.5,2.1-2.6,4.3-3.3l1.4-2c1.8-1.2,3-2.3,3.4-3.2c0.4-0.9,1.4-1.7,2.8-2.5l1-1.9l0.6-4
		c1.9-3.4,2.9-6.6,2.9-9.8c0-0.6-0.4-1.3-1.2-2.3c-0.8-1-1.4-1.4-2-1.4c-1.6,0-3.2,1.2-4.7,3.5c-1.5,2.4-3.2,3.9-5,4.7
		c-1.8,0.8-2.8,1.8-3.1,3.1c-0.3,1.3-1.2,1.9-2.6,1.9l-2.3,2C984.3,557.6,983.3,558.8,982.4,560.2z"/>
	<path class="st0" d="M1057,531.3c-0.8,1-2,2-3.7,3.2c-1.7,1.2-3.3,2.6-5,4.1l-0.6-1.2l0.3-2.6c0-10.3-2.1-14.9-6.2-14l-9.7,2.4h-2
		c-5,2.1-7.9,3.7-8.7,4.9l-0.6,1c-0.8,0.4-1.5,0.9-2.2,1.6c-0.7,0.7-1.7,1.3-3,2c-9.3,5.1-14,11.2-14,18.2c0,0.4,0.4,1.5,1.1,3.2
		c0.7,1.8,1.5,2.7,2.4,2.7c1.3,0,2.2-0.3,2.7-0.9c0.6-0.6,1.2-0.9,1.9-1c0.7-0.1,1.2-0.5,1.7-1.4c0.4-0.8,0.9-1.5,1.4-1.9
		c0.5-0.5,1.5-1.7,3-3.5c1.5-1.9,2.9-3.1,4.2-3.7c0.4-1,1.2-1.6,2.5-2c1.3-0.4,2.5-1,3.5-1.9c1.1-0.9,2.5-1.4,4.3-1.4
		c0.8,0,1.2,0.8,1.2,2.3c0,0.9-0.2,1.6-0.7,2.2c-0.5,0.6-0.7,1.4-0.7,2.6l-1.9,3c-1.3,1.2-3.1,3.6-5.6,7.1c-2.5,3.5-4.7,6.1-6.5,7.9
		c-1.2,2.4-2.3,4.4-3.5,6.1c-1.2,1.7-1.8,3.2-1.8,4.5c0,12,2.9,18,8.7,18c3,0,4.5-0.8,4.5-2.3l-0.4-2.5c0-0.5,0.5-1,1.7-1.7
		c1.1-0.6,1.8-1.2,2-1.7c0.2-0.5,1.3-2.1,3.5-4.9c2.1-2.8,3.2-4.2,3.2-4.3c0.3-0.5,1.5-1.2,3.8-2.2c1.1-1.4,2.1-2.8,2.7-4.2
		c0.7-1.3,1.6-2.2,2.8-2.4c1.2-0.3,1.8-0.9,1.8-1.7c0-4.9,1.2-7.4,3.5-7.4l2.7,0.6l0.6-0.6c2.5-4.1,4-6.2,4.5-6.2h0.6
		c0.6,0.2,0.9,0.4,0.9,0.6c0.4,0,0.6-0.1,0.6-0.3c0.8-3.9,2.2-6.4,4.2-7.3c1.9-1.7,3.5-3.2,4.6-4.5c1.2-1.2,3.4-3,6.7-5.2
		c3.3-2.2,5.3-3.3,6-3.3c0.2,0,0.5,0.4,1.1,1.1c0.5,0.7,0.8,1.2,0.8,1.5l-0.6,4.5l0.3,5.1l-0.6,2.3l0.9,4.2
		c-0.8,1.3-1.2,2.1-1.2,2.3v0.7c0.2,0.4,0.3,0.7,0.3,0.9v4.3c-0.8,2-1.2,3.1-1.2,3.3v0.6c0.8,1.3,1.2,2.1,1.2,2.3l-0.6,5.3
		c0,2.4,1.2,5.8,3.5,10.1c2.3,4.3,4.3,6.5,5.9,6.5c1.6,0,4.5-2.5,8.7-7.4l0.9-1.6c0.7-0.9,1.3-1.9,2-3.2l1.7-0.9
		c0.9-1.4,1.8-2.5,2.7-3l1.7-3.5c0.4-0.2,1.1-0.3,2-0.3c2.1-3.2,3.9-5.1,5.3-5.9c1.4-0.8,2.2-1.6,2.2-2.5l-0.3-1.2v-0.6
		c0-1,0.6-1.8,1.7-2.6c0.6,0.2,1,0.3,1.2,0.3c0.4,0,0.9-0.5,1.5-1.4c0.6-0.9,1.8-1.9,3.5-2.8c1.2-2.3,2.2-3.7,3.2-4.1
		c1-0.4,1.9-1,2.5-1.8c0.7-0.8,1.2-1.2,1.6-1.2c1.4,0,2,0.6,2,1.7l-0.9,7.4l0.3,1.6l-0.6,2.6l0.3,5c0,0.6-0.1,1.2-0.3,1.9
		c-0.2,0.7-0.3,1.3-0.3,1.9c0,1.2,1.1,3.3,3.3,6.2c0,0.3-0.3,0.7-0.8,1.2c-0.5,0.5-0.8,0.8-0.8,1c0,3.8,0.8,6.3,2.4,7.7
		c1.6,1.3,2.8,2.5,3.7,3.6c0.9,1.1,2.5,2.1,5,3.1c2.5,1,4.2,1.5,5.2,1.5c2.2,0,4.9-1.8,8.1-5.3c3.2-3.5,5.1-5.5,5.7-5.8l3-1.9
		c0.4-0.4,1.1-0.7,2-0.9c1-0.2,1.8-1,2.5-2.5c0.7-1.5,1.2-2.2,1.4-2.2l2.9,0.3l0.6-0.6c1.6-3.2,4-5.8,7.1-7.9
		c3.1-2.1,4.7-4.1,4.7-5.9c0-1-0.4-2.1-1.2-3.5c0.4-1.6,0.6-2.6,0.6-3c0-1.3-0.8-2-2.3-2c-1.8,0-4.4,1.4-7.8,4.1
		c-3.4,2.7-5.4,4.8-6,6.2c-0.6,1.4-1,2.2-1.2,2.4l-3.5-0.3c-1.8,1-2.8,2.2-2.9,3.7c-0.1,1.5-0.5,2.2-1.3,2.2h-0.6
		c-1-0.4-1.5-0.6-1.7-0.6c0.1,0,0.2,0,0.2,0.1c0,0-0.3,0.2-0.9,0.6c-0.6,0.3-1.4,0.6-2.4,0.9c-1,0.3-1.9,0.6-2.4,1
		c-1.3-1.5-1.9-2.6-1.9-3.3l0.7-7.9l-0.3-2.6c0-0.4,0.6-1.2,1.7-2.4c0-0.4-0.4-1.1-1.2-2.2c-0.8-1.1-1.2-1.9-1.2-2.5l0.7-3v-2.9
		l-1-4.5l0.7-3.3c0-1.3-1.2-3.3-3.5-5.7c-2.4-2.5-5.4-3.7-9-3.7c-0.6,0-1.5,0.5-2.9,1.5c-1.4,1-2.1,1.4-2.3,1.4h-0.3l-1.3-0.6
		l-3.2,2.5c-0.6,0.2-1.3,0.8-2.2,1.7c-0.9,1-1.6,1.5-1.9,1.5c-2.9,0.9-7,4.2-12.4,10.1c-0.4,1-1.1,1.6-2,2c-1,0.4-1.8,1-2.4,1.9
		c-0.6,0.9-1.1,1.4-1.5,1.4c-0.4,0-1,0.4-1.7,1.2l-2,2c-1.2,0.3-2.6,1.2-4.2,2.7c-1.2,0-1.9-0.9-1.9-2.7l1.6-7.1l-0.6-3.6l0.6-3.5
		v-1.2c-0.8-3.6-1.2-5.7-1.2-6.5l0.6-4.9c0-2-1.5-4.3-4.5-6.9c-3-2.6-5.3-3.9-7.1-3.9c-1.4,0-2.5,0.6-3.5,1.8
		c-1,1.2-1.6,1.8-1.8,1.8l-2.3-0.9c-0.9,0-2.7,1-5.6,2.9l-5,3.6c-1.2,1.6-2.6,2.9-3.9,3.8l-4,1.9
		C1059.2,529.3,1057.7,530.3,1057,531.3z"/>
	<path class="st0" d="M1289.2,427.3l0.7,3l-4.5,12.4l-1.4,2.3c-0.3,2.6-0.9,4.4-1.9,5.4c-1,1-2,2.8-3.1,5.4
		c-1.1,2.6-2.6,5.5-4.7,8.7c-2.1,3.2-3.2,5.6-3.4,7c-2.1,1.8-3.2,3.1-3.3,3.8c-0.1,0.7-0.5,1.3-1.2,1.9c-0.7,0.6-1.5,1.5-2.6,2.7
		l-0.6,1.2c-1,1.3-1.5,2.6-1.6,3.9c-0.1,1.3-0.5,2.2-1.3,2.7c-0.8,0.6-1.9,1.6-3.2,3.2c-1.4,1.5-2.4,2.6-3,3.2l-1.1,2
		c0,0.6-0.5,1.4-1.5,2.4c-1,1-1.8,1.9-2.4,2.7l-8.6,11.5c-0.4,0.8-1.2,1.5-2.5,2.2c-1.3,0.7-2.2,1.9-2.8,3.7
		c-0.6,1.7-1.3,2.9-2.3,3.5c-1,0.6-1.7,1.2-2.3,1.7c-0.6,0.5-1,0.7-1.2,0.7h-0.3c0.2-2,0.3-3.2,0.3-3.6c0-1.2,0.6-2.8,1.7-5l0.3-0.9
		c0.2-1.3,0.5-2.4,0.9-3.2l3.3-6.8c2.3-2.1,4.1-5.5,5.3-10.1c0.8-0.8,1.2-1.4,1.4-2l2.3-5.3c0.4-1,1.3-1.5,2.7-1.7
		c0.4-2.4,0.6-3.8,0.6-4.2l5.3-6.5c1-0.6,1.4-1.3,1.4-2.2l0.9-1.4c1.6-4.4,2.8-7,3.4-7.7c0.6-0.7,1.8-2.1,3.5-4.2
		c1.7-2.1,2.7-3.8,3.2-5.3c0.4-1.5,1.3-2.7,2.5-3.5c1.2-0.9,2-1.5,2.2-1.9l0.6-2.8l3.3-4.2l0.6-1.7c2.4-3,4.1-5.5,5.2-7.6
		c1.1-2.1,2.5-3.7,4.3-4.8l1.2-1.2c1-3.6,2.5-5.6,4.8-6.2v1.7L1289.2,427.3z M1242.8,586.8c1.2-2.6,3.2-4.4,6.2-5.3
		c0.6-0.2,2.1-2.6,4.7-7.4c2.6-4.7,4.2-7.1,5-7.1l3.3,0.3l5.8-1c1.8-0.2,2.9-1.2,3.3-2.9c0.3-1.7,1.3-2.6,2.8-2.6
		c0.2,0,0.3,0.1,0.3,0.3c1,1.2,1.6,1.7,2,1.7c2.6-1.9,4.2-3.3,4.8-4.2c0.4-2.3,0.9-3.5,1.4-3.5c0.2,0,0.7,0.3,1.4,0.7
		c0.7,0.5,1.4,0.7,1.9,0.7c1.1,0,2.8-1.7,5-5c0.8-0.2,1.5-0.8,2.3-1.9c0.8-1.1,1.6-2,2.6-2.9l1.6-0.9c2.1-3.3,3.9-5.4,5.4-6.3
		c1.5-0.9,2.2-3.9,2.2-9c0-0.8-0.5-1.2-1.4-1.2c-2.6,0-4.4,0.6-5.3,1.9c-1,1.2-1.5,1.9-1.7,1.9h-2.2c-0.4,0-1.4,0.7-3,2.1
		c-1.6,1.4-3.7,2.7-6.2,4c-2.6,1.3-5,3-7.2,5c-2.3,2.1-5.1,3.1-8.4,3.1c-1.5,0-2.3-0.3-2.3-1c-1.2-3.5-3.4-5.2-6.8-5.2
		c-0.1,0-1.7,0.6-4.7,1.7c-1.2-0.4-2.1-0.7-2.8-1c-0.7-0.3-1.5-0.4-2.2-0.4l-7.4,2.6c-2.6,0-5,1.8-7.3,5.3c-1.1,1.5-2.3,3-3.8,4.4
		c-1.4,1.4-2.2,3-2.2,4.7c0,3.8,1,5.8,2.9,6.2c3.9,0,5.9,1,5.9,3c0,1.9-0.8,4.2-2.4,6.9c-1.6,2.7-3.2,4.4-5,5.2l-1.7,0.9
		c-1.6,1.9-2.8,2.9-3.6,2.9c-1.5,0-2.3-1.5-2.3-4.6c0-1.1-0.4-2.3-1.2-3.6l0.3-3.2V567l-0.6-3v-0.9c1-3.9,1.4-7.3,1.4-10v-0.4
		l-1.4-2.6c0-1,0.4-1.8,1.1-2.6c0.7-0.8,1.7-3.9,2.9-9.5h0.3c3.2,2.8,5.2,4.2,6.2,4.2c0.4,0,0.6-0.1,0.6-0.3c2.3-0.5,3.9-1.2,4.7-2
		c0.8-0.9,3.7-5.1,8.7-12.8c1.9-0.8,2.9-2.2,2.9-4.3c0-3.2,0.3-4.9,0.9-5l3-0.3c0.3-0.1,1.1-1,2.4-2.9c1.3-1.8,2-2.8,2.2-3l-0.6-2.7
		c0.2-0.6,0.7-1.2,1.6-1.7c1.7-0.2,2.9-1.1,3.6-2.7c0.7-1.6,1.5-2.6,2.4-3.1c0.9-0.5,1.4-0.9,1.4-1.3l-0.3-4.2v-0.3l2.9,0.3
		c0.3-0.3,0.6-1.2,0.8-2.7c0.2-1.5,0.8-2.6,1.7-3.2c0.9-0.6,1.6-1.6,2.1-3c0.5-1.3,1.3-2.4,2.2-3.2c0.7-1.9,2.1-4.5,4.2-7.6l0.9-2
		c0-0.7,0.5-2,1.7-4.1c1.1-2.1,2.4-4.3,4-6.6c1.1-3.2,2.2-5.3,3.3-6.5h0.3l-0.7-3c0.7-1.3,1.3-2.1,1.7-2.3c0.5-0.2,0.9-0.9,1.3-2
		l3.9-7.5c0.8-0.8,1.7-3.9,2.7-9.5c1-5.6,1.6-9,1.7-10.2c0.1-1.2,0.5-2.4,1.1-3.5c0.6-1.1,0.9-1.9,0.9-2.5c0-2.3-1.2-5.1-3.6-8.5
		c-2.4-3.4-4.4-5.1-5.9-5.1c-1.7,0-3.7,0.9-6,2.8c-2.3,1.9-3.6,2.9-4.1,3.1c-2.7,1.1-5,3.3-6.8,6.8c-1.2,0-2.3,1.2-3.5,3.6l-4.8,5.9
		c-1.9,1.2-4,3-6.2,5.6c-1.5,3.1-3.4,6-5.5,8.7c-2.1,2.7-3.8,5.4-5.2,8.1c-1.1,0.5-2,1.2-2.9,2.2l-1.7,3.2c-1.4,2-2.2,3.4-2.2,4.2
		l0.6,1.2c0,0.6-0.5,1-1.4,1.1c-1,0.2-1.7,1.1-2.4,2.7c-0.6,1.6-1.1,2.6-1.2,2.9c-2.3,1.6-3.7,3.3-4.3,5.1c-0.6,1.7-1.4,3.3-2.4,4.6
		c-1,1.4-2.2,3.7-3.5,6.9c-1.4,0.6-2.3,1.3-2.6,2.2c-0.3,0.9-0.8,2.3-1.6,4.3l0.3,1.7c0,0.6-0.5,1-1.4,1.3c-1,0.3-1.5,1-1.7,2
		l-1.6,5.3l-2,4c-0.4,1.4-0.9,2.5-1.6,3c-0.7,0.6-1.2,2-1.6,4.4c-0.4,2.4-1.3,4.1-2.6,5.3c-1.3,1.2-2,3.2-2,5.8l0.3,1.9v1.2
		c0,0.8-0.3,1.1-0.9,1.1c-1.3,0-2,0.6-2.2,1.7l-0.3,2.5c-0.4,0.8-0.7,1.7-0.9,2.9c-0.2,1.2-0.5,2.4-1,3.8c-0.5,1.4-0.7,2.2-0.7,2.4
		c0,0.4,0.6,2.5,1.7,6.2c-2.6,3.3-3.9,7.9-3.9,13.8c0,0.2,0.5,1.1,1.4,2.7c0.9,1.6,1.4,2.7,1.4,3.2c-2,0.4-3,2.5-3,6.2
		c0,1.1,0.9,4.2,2.5,9.5c1.7,5.3,3,8.5,4,9.5c1,1.1,2.5,2.2,4.7,3.5c2.2,1.3,4.4,1.9,6.7,1.9l3.9-0.3c1.9,0,4.4-0.6,7.3-1.7
		c3-1.2,4.6-1.7,4.8-1.7c1.5,0,2.5-0.5,2.9-1.6l1-2L1242.8,586.8z"/>
	<path class="st0" d="M1279.9,544.8l-1.2,6.8c0,3,1.3,4.5,4,4.5c0.5,0,1.4-0.6,2.9-1.7c1.4-1.1,2.4-2.3,2.9-3.7
		c0.5-1.3,1.2-2.2,2.3-2.6l3.2-0.9c1.7-0.5,3.1-1.5,4.2-3c0.2-2.1,0.8-3.2,1.7-3.2h0.6l1.9,0.9l1.2-0.3c0.8-1.2,1.6-2,2.5-2.2
		c0.9-0.2,1.3-0.5,1.3-0.9c0.9-1,1.4-1.4,1.6-1.4l2.6,0.9c2-1.5,3.2-2.3,3.6-2.3c1.2,0,1.7,0.6,1.7,1.7c0,0.3-0.4,1.2-1.3,2.6
		c-0.9,1.5-1.4,2.8-1.5,4.1c-0.1,1.3-0.6,2.3-1.4,3.1l-1.4,2l-0.6,2.6c-0.6,1.8-1,3.1-1.2,3.9c-0.6,0.4-1.1,1.1-1.4,2.3l-0.7,3.6
		c-0.2,0.8-0.4,1.8-0.6,2.9c-0.2,1.2-0.5,2.1-0.9,2.8c-0.4,0.7-0.6,2.3-0.6,4.9l0.3,0.9l-0.3,2c0,0.2,0.3,1.1,0.9,2.7
		c0.6,1.6,0.9,2.6,0.9,2.9l-0.3,2v0.9c0,2.2,1.2,4.3,3.5,6.3c2.4,2,4.4,3,6,3l2.9-0.9l2.2,0.3c0.6,0,1.3-0.5,2.3-1.5
		c1-1,2.1-1.6,3.4-1.6c1.3-0.1,2.2-0.3,2.8-0.7l2.6-1.4c1.2-1,2.7-1.8,4.2-2.4c1.6-0.6,2.5-1,2.7-1.2l0.9-1.4l6.2-4.5
		c1.2-0.8,2.6-2,4.4-3.8c1.8-1.8,3.9-3.5,6.5-5.3c2.5-1.7,4.1-3,4.7-4c0.6-0.9,1.3-1.8,2.2-2.5c0.9-0.8,1.7-2.1,2.4-4.1
		c0.7-2,1.4-3.7,2.2-5c0.8-1.4,1.2-3.1,1.2-5.3c0-1.8-0.7-2.7-2.2-2.7c-1.4,0-3.3,1.3-5.9,3.9l-18.9,14.4c-2.9,1.2-4.9,2.1-6.1,2.8
		c-1.2,0.7-2.1,1.2-2.8,1.4l-3.2,3.2l-2.3-0.3c-2,0-3.3,0.3-3.9,0.9c-0.4-0.2-0.7-0.4-0.9-0.6c1.4-0.7,2-1.5,2-2.6V562
		c0-0.6,0.1-0.9,0.3-0.9c1.1-0.9,1.6-1.7,1.6-2.2l-0.9-3.5c0-0.6,0.7-1.3,2-2.3l0.6-3c2-0.4,3.8-4.7,5.5-13l2.5-11.2
		c0-2.6-1.5-5.3-4.5-8.2c-3-2.8-5.9-4.3-8.7-4.3c-1.9,0-3.5,0.6-4.7,1.8c-1.2,1.2-2.6,2.2-4.1,3l-1.9,0.9c-1.1,1.5-2.5,2.9-4.2,4
		c-1.7,1.1-2.9,2.2-3.5,3.4c-0.6-0.2-1.4-0.3-2.3-0.3c-1,0-2.2,0.8-3.8,2.4c-1.6,1.6-2.7,2.5-3.5,2.8c-0.7,0.3-1.3,0.6-1.7,1
		l-2.3,1.7c-1.4,0.5-3.1,2.2-5,5l-1.4,0.6c-1.4,1.4-2.4,2.2-3,2.2h-0.9l-2.3,2L1279.9,544.8z M1345.3,476.8c2.1,1.9,3.8,2.8,5.1,2.8
		c2,0,3.9-0.7,5.7-2.1c1.8-1.4,2.7-3,2.8-4.9c0.1-1.9,0.3-3.2,0.6-3.8c0.3-0.7,0.4-1.1,0.4-1.3c0-2-0.9-4.3-2.8-7
		c-1.9-2.6-3.7-4.2-5.4-4.5c-3.4,1.2-5.4,1.8-6.1,1.9c-3.1,0.5-4.6,3-4.6,7.5v0.9l0.9,5.6C1342.1,473.3,1343.2,474.9,1345.3,476.8z"
		/>
	<path class="st0" d="M1415.1,667.7l0.7-2.9c1.9-4.1,3.2-7.5,3.7-10c0.6-2.5,1.4-4.4,2.4-5.8c1-1.4,1.7-3,2-4.8
		c0.3-1.9,1.3-4.6,3-8.1l-0.6-2.6c1.6-1.2,2.5-2.1,2.5-2.5l-0.3-4c2.1,0,4.1-2.4,5.8-7.1c1.8-4.8,2.7-7.3,2.8-7.7
		c0.1-0.4,0.2-0.6,0.4-0.6c1.8-1.3,2.7-2.8,2.7-4.5l-0.7-4.3c0-0.5,0.2-0.8,0.7-1c1.9,3.4,2.9,6.7,2.9,10.1c0,2.7-0.5,6.3-1.6,11
		l-2.9,13.5c-1.5,4.1-2.6,7.2-3.2,9.2l-1.7,6c-0.4,1.4-1.2,3.7-2.5,7.1c-1.3,3.4-2.1,5.5-2.2,6.3c-1.3,0.6-2.6,2.1-4.2,4.6
		c-4.9,10.5-8.7,15.7-11.2,15.7c-0.2,0.2-0.4,0.3-0.6,0.3c-0.8,0-1.2-1-1.2-2.9c0-0.7,0.2-1.7,0.6-3c0.4-1.3,0.6-2.4,0.6-3.2
		l0.3-3.9C1413.5,670.4,1414.1,668.7,1415.1,667.7z M1386.1,575l0.9-4.5l2.9-4.3c0.7-1.6,1.4-2.8,2.2-3.5c0.8-0.7,1.1-1.6,1.1-2.7
		c0-1.6,0.9-2.5,2.6-2.7l2.7-2.3c4.5-4.5,7.4-6.8,8.7-6.9c1.3-0.1,3-1.3,5.1-3.5c2.1-0.9,3.5-1.4,4.2-1.4l1.7-2.5
		c2.6-1,4.5-1.6,5.6-1.7c1.5-2.1,3.3-3.2,5.3-3.2c1.9,0,3.8-0.4,5.6-1.3c4.9-0.8,7.6-1.2,7.9-1.2c1,0,2.3,0.4,3.9,1.2
		c2.3,2.4,4.2,3.6,5.6,3.6h0.6l2-0.9c0.4,0,0.6,0.2,0.6,0.6c0,0.6-0.4,1.2-1.2,1.8c-0.8,0.6-1.4,1.4-2,2.4c-2.2,0-3.7,1-4.3,3.1
		c-0.7,2.1-1.2,3.1-1.6,3.1l-1.6-0.3l-2.6,0.6l-1.7,1.7c-1.9,2.6-3.1,3.9-3.6,3.9h-0.9l-7.1,4.3c-1.4,0.6-2.9,1.5-4.3,2.8
		c-1.4,1.3-2.7,2.1-3.9,2.5c-1.2,0.3-1.9,0.6-2.2,0.9c-0.2,0-1.1,0.6-2.6,1.9c-1.5,1.3-3.3,2.1-5.3,2.6c-3,1.5-5.2,2.8-6.7,3.8
		c-1.5,1-3.1,1.7-4.9,2.1c-1.8,0.4-3.3,1-4.7,1.7c-0.6-0.2-1-0.3-1.2-0.3l-4.2,1.2h-0.6C1386.9,577.5,1386.1,576.7,1386.1,575z
		 M1409.8,524.2c-2.5,0.9-4.3,1.8-5.3,2.9c-1,1-2.1,2-3.4,2.7l-1.7,1.2c-0.7,1.3-1.2,2.3-1.7,2.9c-2.3,0-5,1.9-8.2,5.6
		c-0.5,0.6-1.2,1.3-2.2,2.2c-1,0.9-2.4,2.6-4.3,5c-1.9,2.4-3.5,4.4-4.9,5.9c-1.4,1.5-2.2,3.2-2.5,5.2c-0.3,2-1,4.1-2.1,6.5
		c-1.1,2.4-1.7,6-1.7,10.9c0,3,0.4,5.4,1.3,7.3c0.9,1.9,2.9,3.5,6,4.7c3.1,1.2,5.1,1.8,5.8,1.8l2-0.3l2.9,0.3l5.9-1.2
		c1,0,2.8-1.5,5.6-4.5l2.7,0.7c0.2-0.3,0.4-0.4,0.6-0.4l5.6-4l2,0.3c0.2,0,0.3-0.1,0.3-0.3c1.2-0.9,2.4-2,3.3-3.3l2.6,0.9
		c0.2,0,0.6-0.4,1.3-1.2c0.7-0.8,1.3-1.3,1.8-1.6c0.5-0.3,1.2-0.8,2-1.6c0.8-0.8,1.4-1.3,2-1.6c3.6-1.3,5.9-3,7.1-5.1
		c1.2-2.1,2-3.1,2.4-3.1l1.7,0.6c0.2,0,0.7-0.4,1.4-1.2c0.8-0.8,2-1.3,3.6-1.5c1.6-0.2,2.8-1,3.5-2.4l1.3-0.3l-0.3,1
		c-1.8,1.7-2.7,3.2-2.7,4.3v3c-2.9,3.6-4.9,7.1-5.9,10.5l-1.4,1c-5.3,2.1-7.9,3.9-7.9,5.5l3.2,5.3l-1.4,4.2
		c-1.7,3.5-2.9,6.3-3.3,8.5c-1.9,2-2.9,3.2-2.9,3.6v2.3l-2.3,4.2l-1.3,3c-1.7,2.6-3.6,6.1-5.6,10.5l-10,22.5c-0.4,1.3-1,3.1-1.7,5.3
		l-1,2.3c-0.2,1.8-0.9,4.3-2.2,7.4c-1.3,3.1-1.9,5-1.9,5.6c0,0.6-0.4,3.2-1.2,7.8l-2.5,13.6c0,2.6,0.9,5.2,2.6,7.9
		c1.7,2.6,4.8,4,9.2,4l2.3-1.9h1.6c1.2,0,2-0.3,2.6-0.9c0.6-0.6,1.5-1.1,2.7-1.6c1.2-0.5,2-1.1,2.2-1.8c0.3-0.7,0.8-1.6,1.6-2.5
		c0.8-1,1.5-2,2.1-3.1c0.6-1.1,1.2-2,1.8-2.8c0.6-0.8,1-1.5,1.2-2.4c0.2-0.8,1-1.8,2.4-3c1.3-1.2,2.3-2.2,2.7-3.2
		c0.5-1,1.3-2.1,2.5-3.3l0.6-1.2V671l1.3-1.3c1.2-2.3,2.1-4,2.7-5.1c0.7-1.1,1-1.9,1-2.2l0.3-0.9c0.8-1.5,1.2-2.4,1.2-2.6l-0.3-1.6
		c0-0.2,0.4-0.4,1.1-0.6c0.7-0.2,2.1-3.2,4.2-9l0.9-4.2c2.9-4.3,4.7-7.9,5.5-10.6c0.8-2.7,1.9-5.2,3.5-7.2c1.5-2.1,2.3-3.6,2.3-4.5
		c0-1.8,0.3-3.4,0.9-4.8c0.6-1.4,0.9-2.5,0.9-3.2c-1.4-0.7-2-1.7-2-3.2c0-1.1,0.5-1.6,1.4-1.6h1.6c0.6-3.3,0.9-5.4,0.9-6.5v-0.6
		l-2.5-10.5c1,0,1.9-0.3,2.6-0.9c0.7-0.6,1.9-1.2,3.8-1.7c1.8-0.5,3.1-1.3,3.8-2.2c0.7-0.9,1.3-1.4,1.7-1.4l1.2,0.3h0.7
		c0.9,0,2.2-1,4-3l2.5,0.3c1,0,2.4-0.9,4.3-2.8c1.9-1.9,3.7-3,5.5-3.2c1.8-0.3,3-1.2,3.5-2.7c1.5-0.4,3.2-1.3,5.1-2.7
		c1.9-1.4,3.5-2.5,4.8-3.4c1.4-0.9,2.2-1.9,2.5-3.2c1-0.4,2.1-1.1,3.5-2l1-0.9c2.9-1.7,4.3-3.8,4.3-6.2l-0.3-4.8l0.6-2.3
		c0-1.8-0.6-2.7-1.7-2.7c-0.6,0-1.5,0.8-2.9,2.4c-1.3,1.6-3.7,3.4-7,5.4c-3.3,2-5.8,3.6-7.4,5l-4.8,3.9c-0.5,0.7-0.9,1-1.3,1h-2.9
		l-6.8,5c-1.9,0.6-3,1-3.2,1.4c-0.2,0.3-1.1,0.9-2.7,1.8c-1.6,0.9-2.4,1.3-2.5,1.3c-0.2,0-0.4-0.1-0.6-0.3c-1.4,0.4-3.3,1-5.5,1.9
		c-2.2,0.9-3.7,1.3-4.5,1.3c-1.3,0-1.9-0.8-1.9-2.3c0-1.1,0.8-1.9,2.5-2.5c1.6-0.6,2.6-1,2.7-1.3c0.2-0.3,0.7-2.1,1.6-5.5l2.7-1.5
		l1.2-5.9l2.3-0.6l0.6-0.6c2-3,3.6-5.1,4.8-6.5l1.9-2.5c1.7-3.3,3.1-5.7,4.2-7.1c1.1-1.5,1.6-2.6,1.6-3.4l-0.6-6.5v-1.9
		c-1.2-3.3-3.7-4.9-7.6-4.9c-2.5,0-4.3,0.5-5.6,1.4c-1.2,1-2.2,1.6-3.1,1.9c-0.9,0.3-1.8,1.2-2.7,2.8c-0.9,1.6-1.7,2.4-2.2,2.4
		c-0.8,0-1.1-0.6-1.1-1.7v-3.6c-2.2-8.8-5.7-13.5-10.4-13.8l-2.6-0.3c-1.8-0.6-2.8-0.9-3-0.9c-0.6,0-1.3,0.2-2.3,0.6l-1.4,0.6
		c-4.4,0.6-7.3,1.2-8.7,1.9c-1.3,0.7-3.1,1.2-5.2,1.7c-2.1,0.4-5.3,1.8-9.5,4.1l-4.5,2.6C1410.7,522.5,1410,523.2,1409.8,524.2z"/>
	<path class="st0" d="M1518.1,538.5c-1.3,2.1-2.1,3.1-2.3,3.1c-0.8,0.6-1.2,1-1.2,1.2v2.6l-1,5.6c0,0.7,0.7,1.4,2,2
		c1.3,0.7,2.2,1,2.6,1c0.6,0,1.9-1.1,4.1-3.3l1.7-0.3c0.4-0.4,0.9-1.3,1.5-2.9c0.2,0,0.6,0.3,1.2,0.9h0.4c0.6-0.4,1.4-0.8,2.3-1.4
		c1-0.5,1.6-1.1,2-1.7c0.4-0.6,1-1,1.9-1.2l2-0.9c1-0.6,1.5-0.9,1.7-0.9c0.4,0,0.6,0.2,0.6,0.6c0,1-0.8,2.4-2.3,4.2
		c0,0.8-0.1,1.4-0.3,1.7c-0.8-0.5-2,1.1-3.5,4.8c-1.6,3.7-2.9,6.2-3.9,7.6c-1,1.4-1.5,3.9-1.5,7.6c0,2.2,0.4,3.8,1.1,4.9
		c0.7,1.1,1.2,1.8,1.4,2.2c5.2,10.5,12,15.7,20.3,15.7c1.2,0,3.1-1.5,6-4.5c2.8-3,5.1-4.5,6.7-4.5c1.4-0.7,2.6-2.5,3.6-5.6l2.6,0.3
		l1.2-1.4c2.6-1.7,4.1-3.9,4.5-6.5h2.3l2.5-2.3c1.3-1,2.3-1.9,3-2.8c0.6-0.9,2-1.9,4.1-3.1l0.9-3.6l2.5,0.3l2-1.2
		c0.2-0.4,0.5-0.8,0.9-1.2c1,0.1,2.4-1.5,4.2-4.8c2.1,0,3.8-1.2,5.1-3.5c1.3-2.4,2.8-3.9,4.5-4.7l-0.6,4.8c0,1.2,0.1,2.2,0.3,3.2
		l-2,3.3c-0.2,0.4-0.4,0.7-0.6,0.8l0.3,5.6c0,0.1-0.5,0.8-1.4,2.2c-0.9,1.4-1.4,2.4-1.4,3.1l0.3,3.5l-0.9,5c0,0.2,1.4,2.1,4.2,5.7
		c2.8,3.6,4.7,5.8,5.5,6.5c0.8,0.7,1.7,1.6,2.6,2.6c0.9,1,1.6,1.5,2.2,1.5c2.7,0,4.7-0.8,5.9-2.4l2.6-3.3c0.7-0.9,1.2-1.3,1.4-1.3
		l3-0.4l2.3-2.3c1-1.5,2.4-2.9,4.2-4.1c1.9-1.2,3.1-2.2,3.7-3c0.6-0.8,1-1.1,1.2-1.1c0.2,0,0.8,0.3,1.7,0.9l2.6-2.2
		c0.7-0.2,1.4-0.6,2.2-1.2l0.6-0.9c1.5-1.5,3.3-3.5,5.2-5.8c2-2.4,3.3-3.6,4.1-3.8c0.1,0.1,0.3-0.1,0.6-0.6c0.3-0.5,0.7-1,1.2-1.6
		l2.6,0.3c0.8-0.4,1.6-1.6,2.6-3.7c1.3-0.4,1.9-1.2,1.9-2.5V549c0-0.4-0.3-0.8-0.9-1.4c-0.6-0.5-1.2-1.5-1.8-3
		c-0.6-1.4-1.3-2.2-2.3-2.2c-0.6,0-2.7,1.4-6.4,4.3c-3.7,2.9-5.6,5.5-5.7,7.8c-0.4,0.4-1.3,0.6-2.7,0.7c-1.4,0.1-2.6,0.8-3.5,2.2
		c-1,1.4-1.9,2.3-2.9,2.6c-1,0.3-2.8,2.6-5.6,6.8l-1.3-0.3c-3.1,1.2-5.1,2.2-6.1,3.2c-1,1-1.8,1.4-2.4,1.4c-0.8,0-1.2-1.2-1.2-3.5
		v-0.6c0-0.4,0.4-0.7,1.2-1c0.8-0.3,1.2-1.4,1.3-3.2c0.1-1.9,1.5-6.9,4.3-15.2c4.3-7.9,6.5-13.2,6.5-16c0-3-1-5-3-6.1
		c-2-1.1-3.8-2.6-5.5-4.7c-1.7-2.1-3.9-3.1-6.5-3.1c-2.7,0-4.6,0.3-5.8,0.9c-1.2,0.6-4.3,3.1-9.3,7.6c-0.4,0.8-1.1,1.3-2,1.7
		l-3.3,2.7c-0.8,1.3-1.7,2.5-2.9,3.4c-1.2,0.9-2.2,2.1-3,3.7c-1,0.2-1.4,0.5-1.4,0.9c-1.8,1.1-3.1,3-3.9,5.6
		c-0.4,0.2-1.3,0.5-2.9,0.9l-1.2,1.4l-8.4,7.5l-3.5,1.7c-0.2,0.5-0.4,1.3-0.6,2.3c-1.2,0.4-2.2,0.6-2.7,0.6c-0.2,0-0.6,0.4-1.3,1.2
		c-0.7,0.8-1.3,1.5-1.9,1.9c-0.6,0.5-1.5,1.5-2.9,2.9c-1.3,1.4-2.8,2.4-4.3,3c-1.5,0.5-2.5,1.1-3,1.8c-0.5,0.7-1.2,1.3-2.2,1.9
		c-1,0.6-1.8,1.2-2.4,1.7c-0.6,0.5-1.1,0.7-1.7,0.7c-0.8,0-1.2-0.9-1.2-2.7c0-1.1,0.8-3.5,2.5-7.4c1.6-3.9,2.9-6.4,3.8-7.6v-3.6
		l0.9-0.9l2-0.3c0.4-0.6,1-1.6,1.9-3.2c1-0.4,1.8-1.3,2.5-2.7l2.5-5.3v-2.9l0.7-0.6c2.1-0.4,3.2-1.6,3.2-3.6c0-3.6-1.7-7.2-5.1-11
		c-3.4-3.8-5.5-5.6-6.3-5.3c-0.2,0-1.1,0.2-2.6,0.6l-4.9,1.3c-1.4,0-2.4,0.4-3.3,1.3c-0.8,0.9-1.5,1.3-2.1,1.3h-0.6
		c-2.1,2.2-3.4,3.7-4,4.5c-0.5,0.8-1.1,1.2-1.7,1.2c-0.8,0-1.4-0.1-1.7-0.3l-2.5,1.4c-1.5,2.6-2.8,3.9-3.8,3.9h-1.2
		c-1.6,1.2-2.6,2.5-2.8,4.2l-2-0.9C1521.1,535.4,1519.5,536.5,1518.1,538.5z"/>
	<path class="st0" d="M1709,525.9c1.7-1.2,2.8-1.7,3.2-1.7h3.3c1.5-1,2.7-1.4,3.5-1.4c1.8,0,2.7,0.6,2.7,1.7c0,0.6-0.8,1.2-2.5,1.7
		c-1.7,0.6-3.3,2.2-5,4.8l-1.4,0.6c-0.8,1-1.9,1.9-3.5,3c-1.6,1-2.5,1.7-2.7,2.1l-1.2,1.2c-3,1.9-5.3,3.6-6.8,4.9
		c-1.6,1.3-3.3,2.4-5.1,3.3l-4.9,2.2c-0.6,0-0.9-0.3-0.9-0.9c0-0.6,0.9-2.8,2.8-6.6c1.9-3.8,3.7-6.2,5.5-7.1
		c1.8-0.9,3.6-2.1,5.5-3.6c1.9-1.5,3-2.3,3.4-2.5l1.7-0.9L1709,525.9z M1673.5,540.2l-3.3,6.1c-0.6,1.6-1.1,2.6-1.4,2.9l-2,7.5
		c-0.2,0.8-1.2,1.9-3.1,3.4c-1.9,1.5-2.8,4.4-2.8,8.7c0,1.5,0.6,2.5,1.9,2.8c1.2,0.3,2.2,0.9,2.7,1.7c2.2,6.8,3.5,10.2,3.9,10.2
		l1.7-0.3c1.2,4.3,3.1,6.5,5.9,6.5c0.7,0.3,1.6,0.8,2.7,1.4c1.2,0.7,2.2,1,3.2,1c1.7,0,3.6-0.3,5.5-0.8l2.6-0.9
		c0.2,0,0.6,0.4,1.2,1.2c0.6,0.8,1.2,1.2,1.7,1.2l4-0.6c0.3,0,0.9-0.2,1.9-0.7l12.1-4.3c2-1.3,3.4-2.1,4-2.3
		c0.7-0.2,1.1-0.4,1.3-0.6c1-0.9,2.6-1.4,4.8-1.7c2.3-0.3,3.6-1.4,4.1-3.2c0.5-1.9,1.3-2.8,2.6-2.8h2.6l0.9-0.3
		c0.9-1.1,2.7-2.4,5.6-3.7c0.8-0.9,1.3-1.9,1.5-3c0.2-1.1,0.8-1.7,1.8-1.7c0.4,0,0.6,0.1,0.6,0.3l1.1,1.2c0.4,0,0.9-0.4,1.6-1.2
		c0.7-0.8,1.5-1.6,2.5-2.6l4.9-5.6c0.6-0.9,1.4-1.5,2.4-1.8c1-0.3,2.4-1.4,4.1-3.2h0.9c0.8-0.2,1.4-1.3,1.9-3.4
		c0.5-2.1,1.2-3.6,2.1-4.6c0.9-1,1.4-1.8,1.4-2.4l-0.7-3.9l0.7-3.7c0-1.5-0.6-2.2-1.9-2.2c-0.6,0-1.1,0.2-1.6,0.6
		c-0.5,0.4-1.2,0.8-2.1,1.2c-0.9,0.3-1.5,1.5-1.7,3.5l-6.5,4.2c-1.5,0.5-2.3,1.4-2.3,2.9v1c0.2,0.6,0.3,1.1,0.3,1.4
		c0,0.4-0.2,0.6-0.6,0.6c-0.4,0-0.6-0.4-0.6-1.3c0-0.9-0.3-1.3-0.9-1.3c-0.4,0-0.8,0.2-1.4,0.7c-0.5,0.5-1.5,1.2-2.8,2.2
		c-1.3,1-2.5,2-3.4,3.1c-0.9,1.1-2,1.8-3.4,2c-1.4,0.2-2.3,0.8-2.8,1.7c-0.5,1-1.8,1.7-3.9,2.1c-2.1,0.4-3.7,1.9-4.8,4.4l-0.6,0.3
		h-2c-0.7,0-1.4,0.4-2.2,1.2l-1.1,1c-0.8,0.4-1.4,1.2-1.7,2.3l-1.4,0.9c-1,0-2.5,0.6-4.3,1.7c-1.8,1.1-3.1,2.5-3.8,3.9l-1.4-0.6
		c-1.2,0.4-2,0.6-2.6,0.6c-1.8,0-3.5,0.5-5.1,1.4c-1.6,1-3.3,1.4-5.1,1.4l-6.9,1c-5.1,0-7.7-1.4-7.7-4.2c0-0.2,0.2-1.2,0.6-3
		c0.4-1.8,0.7-3.2,0.9-4.4c1.5-1,3-1.4,4.5-1.4l2.9-3l1.4,0.3l1.9-1.7c1.5-0.2,2.3-0.9,2.3-2c0-1.1,0.4-2.1,1.2-3
		c1.2,0.4,1.8,0.6,2,0.6c1.3,0,3.7-1.8,7.2-5.3c1.5,0,2.5-0.6,3-1.9c0.5-1.3,1.5-2.4,3.2-3.5l2.6,0.3c1.8-3.8,3.5-5.6,5-5.6
		c0.4,0,0.7,0.1,0.9,0.4c0.2,0.2,0.5,0.4,0.9,0.4c0.6,0,1.3-0.5,2.2-1.4c0.9-0.9,1.8-1.6,2.7-2c0.9-0.4,2.1-1.5,3.7-3.1
		c1.8-0.4,4.3-2.1,7.3-5.2c3.1-3.1,4.6-6.1,4.6-9.1c0-1.6-0.9-3.4-2.7-5.3c-1.8-1.9-3.7-2.9-5.8-2.9c-1.7,0-3.2-0.3-4.4-0.9
		c-1.2-0.6-2-0.9-2.4-0.9l-6,0.3c-1.8,0-3.7,0.3-5.7,1c-2,0.7-3.6,1-4.8,1l-2.3-0.6c-0.2,0-0.4,0.1-0.6,0.3
		c-0.6,0.8-1.7,1.6-3.3,2.6c-6.4,2.3-10.4,4.2-11.8,5.6l-1.7,2.5c-3,1.6-4.6,3.6-4.8,5.8c-0.2,2.2-1.4,3.4-3.7,3.6l-3,2.4
		C1674.7,537.8,1673.9,539.5,1673.5,540.2z"/>
</g>
</svg>
