<svg id="Layer_1" data-name="Layer 1" xmlns="http://www.w3.org/2000/svg" viewBox="0 0 291.54 291.54"><defs><style>.cls-1{fill:#ccd0d2;}</style></defs><path class="cls-1" d="M42.66,95.5a17,17,0,0,0-12.52,5.15A16.84,16.84,0,0,0,25,113v73.77a17.58,17.58,0,0,0,17.67,17.67,16.74,16.74,0,0,0,12.44-5.15,17.19,17.19,0,0,0,5.06-12.52V113A16.83,16.83,0,0,0,55,100.65,16.88,16.88,0,0,0,42.66,95.5Z"/><path class="cls-1" d="M184.71,29.28,196.9,6.81c.79-1.49.51-2.63-.86-3.43a2.37,2.37,0,0,0-3.43,1L180.26,27.05a86.07,86.07,0,0,0-69,0L98.94,4.4a2.38,2.38,0,0,0-3.43-1c-1.38.8-1.66,1.94-.86,3.43l12.18,22.47A75.27,75.27,0,0,0,77.32,55.61a66.54,66.54,0,0,0-11,37H225a66.57,66.57,0,0,0-11-37A75.55,75.55,0,0,0,184.71,29.28ZM114.29,62a6.44,6.44,0,0,1-4.72,2,6.15,6.15,0,0,1-4.63-2,6.83,6.83,0,0,1,0-9.43,6.14,6.14,0,0,1,4.63-2A6.67,6.67,0,0,1,114.29,62Zm72.31,0a6.16,6.16,0,0,1-4.63,2,6.69,6.69,0,0,1,0-13.38,6.14,6.14,0,0,1,4.63,2,6.83,6.83,0,0,1,0,9.43Z"/><path class="cls-1" d="M67,213a18.75,18.75,0,0,0,18.87,18.87h12.7l.17,38.94a17.06,17.06,0,0,0,5.15,12.53,16.85,16.85,0,0,0,12.35,5.15,17.58,17.58,0,0,0,17.67-17.68V231.89H157.6v38.94a17.67,17.67,0,1,0,35.34,0V231.89h12.87A18.74,18.74,0,0,0,224.51,213V98.76H67Z"/><path class="cls-1" d="M248.88,95.5a17,17,0,0,0-12.35,5.06A16.76,16.76,0,0,0,231.38,113v73.77a17,17,0,0,0,5.15,12.52,16.81,16.81,0,0,0,12.35,5.15,17.58,17.58,0,0,0,17.67-17.67V113a16.8,16.8,0,0,0-5.15-12.44A17.21,17.21,0,0,0,248.88,95.5Z"/></svg>