<?xml version="1.0" encoding="utf-8"?>
<!-- Generator: Adobe Illustrator 24.0.1, SVG Export Plug-In . SVG Version: 6.00 Build 0)  -->
<svg version="1.1" id="Camada_1" xmlns="http://www.w3.org/2000/svg" xmlns:xlink="http://www.w3.org/1999/xlink" x="0px" y="0px"
	 viewBox="0 0 110.25 18.49" style="enable-background:new 0 0 110.25 18.49;" xml:space="preserve">
<style type="text/css">
	.st0{fill:#FFFFFF;}
</style>
<g>
	<path class="st0" d="M6.88,15.73l-0.47,1.52c-1.19-1.9-1.54-4.19-0.95-6.35C5.46,12.68,5.93,14.33,6.88,15.73L6.88,15.73z"/>
	<path class="st0" d="M9.97,27.03h13.65V15.09h1.07v12.57c0,0.25-0.12,0.38-0.36,0.51h-0.12H9.97V27.03L9.97,27.03z"/>
	<path class="st0" d="M21.72-8.91v1.02H8.07V6.2H7V-8.4c0-0.13,0-0.25,0.12-0.38s0.24-0.25,0.36-0.25h14.24V-8.91z"/>
	<path class="st0" d="M11.04,20.3c-3.68,0-6.65-3.17-6.65-6.98c0-1.4,0.36-2.79,1.19-3.94H5.7c-2.02,3.17-1.31,7.49,1.66,9.65
		s7,1.4,9.02-1.78c0.36-0.63,0.71-1.4,0.95-2.16l2.14-8.76h0.12l-2.14,8.76C16.61,18.14,14,20.3,11.04,20.3z"/>
	<polygon class="st0" points="28.13,-8.91 23.85,-7.13 21.6,2.27 25.75,0.49 	"/>
	<polygon class="st0" points="25.52,1.38 21.36,3.16 20.18,7.98 24.45,6.2 	"/>
	<path class="st0" d="M8.19,25c6.05,1.65,12.11-2.16,13.77-8.63l2.25-9.27l-4.27,1.65l-1.54,6.48c-1.07,4.32-5.22,6.98-9.26,5.84
		c-1.42-0.38-2.73-1.27-3.68-2.41L1.9,20.17C3.32,22.59,5.58,24.24,8.19,25L8.19,25z"/>
	<path class="st0" d="M3.56,14.2L0,15.6c0.24,1.4,0.71,2.67,1.42,3.81l3.56-1.4C4.15,17,3.68,15.6,3.56,14.2z"/>
	<polygon class="st0" points="18.04,-5.86 14.36,-5.86 14.36,-5.35 18.04,-5.35 	"/>
	<path class="st0" d="M71.68,5.82c-1.54,0-3.09,0.25-4.51,0.89c-1.19,0.51-2.25,1.52-2.85,2.67v12.7h-5.46V1.25h5.1V5.7
		c0.71-1.4,1.66-2.54,2.97-3.56c1.07-0.89,2.37-1.27,3.8-1.27h0.47h0.47V5.82L71.68,5.82z"/>
	<path class="st0" d="M74.77,22.33V1.25h5.58v21.08H74.77z M74.77-1.67V-7h5.58v5.33H74.77z"/>
	<path class="st0" d="M93.76,22.71c-0.95,0-1.78-0.13-2.73-0.25c-0.95-0.13-1.9-0.25-2.73-0.51s-1.78-0.51-2.61-0.89
		c-0.71-0.25-1.54-0.76-2.14-1.14l2.25-3.68c2.37,1.65,5.1,2.54,7.95,2.67c0.95,0,1.9-0.13,2.73-0.63c0.59-0.38,0.95-1.02,0.95-1.78
		c0-0.76-0.47-1.4-1.19-1.65c-1.31-0.51-2.61-0.89-3.92-1.14c-1.19-0.25-2.37-0.63-3.56-1.02c-0.83-0.25-1.66-0.63-2.37-1.27
		c-0.59-0.38-0.95-0.89-1.31-1.52c-0.24-0.63-0.47-1.4-0.36-2.03c0-1.02,0.24-2.03,0.71-2.92c0.47-0.89,1.07-1.65,1.9-2.16
		c0.83-0.63,1.78-1.14,2.73-1.4c1.07-0.38,2.25-0.51,3.44-0.51c1.54,0,3.09,0.25,4.63,0.76c1.42,0.51,2.85,1.14,4.27,1.9l-2.25,3.3
		c-1.07-0.63-2.25-1.27-3.44-1.65c-1.07-0.38-2.14-0.51-3.2-0.51c-0.83,0-1.66,0.13-2.49,0.51c-0.59,0.38-1.07,1.02-0.95,1.78
		c0,0.63,0.36,1.27,0.95,1.52c1.07,0.51,2.25,0.89,3.44,1.14c1.54,0.38,2.85,0.76,3.92,1.14c0.95,0.25,1.9,0.76,2.73,1.27
		c0.59,0.38,1.19,1.02,1.54,1.65c0.36,0.76,0.47,1.52,0.47,2.29c0,1.02-0.24,1.9-0.59,2.79c-0.47,0.89-1.07,1.52-1.78,2.16
		c-0.83,0.63-1.78,1.02-2.85,1.27C96.25,22.46,94.94,22.71,93.76,22.71z"/>
	<path class="st0" d="M39.76,22.71c-1.9,0.13-3.8-0.63-5.1-2.03c-1.31-1.78-1.9-3.94-1.78-6.22V1.25h5.58v12.06
		c0,3.3,1.19,4.83,3.56,4.83c1.07,0,2.25-0.38,3.2-0.89c1.07-0.63,1.9-1.65,2.49-2.92V1.25h5.58v14.86c0,0.38,0.12,0.89,0.36,1.27
		c0.36,0.25,0.71,0.38,1.19,0.38v4.57c-0.59,0.13-1.07,0.13-1.54,0.25c-0.47,0-0.83,0-1.19,0c-0.83,0-1.66-0.13-2.37-0.63
		c-0.47-0.38-0.83-1.02-0.95-1.78l-0.12-1.78c-0.95,1.4-2.25,2.54-3.8,3.17C43.2,22.33,41.54,22.59,39.76,22.71L39.76,22.71z"/>
</g>
</svg>
