<svg id="Layer_1" data-name="Layer 1" xmlns="http://www.w3.org/2000/svg" viewBox="0 0 291.54 291.54"><defs><style>.cls-1{fill:#ccd0d2;}</style></defs><path class="cls-1" d="M187.23,47c10.67-11.43,17.89-27.29,15.91-43.12-15.37.55-34,9-45,20.46-9.9,10.11-18.56,26.28-16.25,41.79C159,67.33,176.53,58.45,187.23,47ZM220,156.3c-.33-35.47,28.08-52.5,29.34-53.33-16-24.08-40.85-27.38-49.71-27.75-21.18-2.22-41.3,12.83-52.05,12.83s-27.28-12.54-44.84-12.2c-23.1.38-44.38,13.83-56.24,35.14-24,42.88-6.15,106.39,17.23,141.17,11.43,17,25,36.13,42.9,35.44,17.25-.7,23.75-11.48,44.56-11.48S177.82,287.6,196,287.25c18.53-.35,30.26-17.35,41.59-34.43A156.9,156.9,0,0,0,256.45,213C256.05,212.76,220.36,198.72,220,156.3Z"/></svg>