<svg xmlns="http://www.w3.org/2000/svg" viewBox="0 0 103.13 37.21"><defs><style>.cls-1{fill:#fff;}</style></defs><title>logo-jurisAtivo 1</title><g id="Camada_2" data-name="Camada 2"><g id="Camada_1-2" data-name="Camada 1"><path class="cls-1" d="M6.88,24.76l-.47,1.53a8,8,0,0,1-1-6.35,8.45,8.45,0,0,0,1.42,4.82Z"/><path class="cls-1" d="M10,36.06H23.62V24.13h1.06V36.7a.53.53,0,0,1-.35.51H10V36.06Z"/><path class="cls-1" d="M21.72.13v1H8.07v14.1H7V.63A.49.49,0,0,1,7.12.25C7.24.13,7.36,0,7.48,0H21.72Z"/><path class="cls-1" d="M11,29.33a6.84,6.84,0,0,1-6.65-7,6.68,6.68,0,0,1,1.19-3.94H5.7a7.23,7.23,0,0,0,1.66,9.65,6.22,6.22,0,0,0,9-1.77,12.48,12.48,0,0,0,.95-2.16l2.13-8.76h.12l-2.13,8.76A6.83,6.83,0,0,1,11,29.33Z"/><polygon class="cls-1" points="28.13 0.13 23.85 1.91 21.6 11.3 25.75 9.52 28.13 0.13"/><polygon class="cls-1" points="25.52 10.41 21.36 12.19 20.18 17.02 24.45 15.24 25.52 10.41"/><path class="cls-1" d="M8.19,34c6.05,1.65,12.1-2.16,13.77-8.63l2.25-9.27-4.27,1.65-1.55,6.47A7.6,7.6,0,0,1,9.14,30.1a7.36,7.36,0,0,1-3.68-2.42L1.9,29.21A10.67,10.67,0,0,0,8.19,34Z"/><path class="cls-1" d="M3.56,23.24,0,24.64a10.49,10.49,0,0,0,1.42,3.8L5,27.05A7.05,7.05,0,0,1,3.56,23.24Z"/><polygon class="cls-1" points="18.04 3.17 14.36 3.17 14.36 3.68 18.04 3.68 18.04 3.17"/><path class="cls-1" d="M71.68,14.86a11,11,0,0,0-4.51.89,6,6,0,0,0-2.85,2.66v12.7H58.86V10.29H64v4.44a10.39,10.39,0,0,1,3-3.56,5.84,5.84,0,0,1,3.8-1.27h1v5Z"/><path class="cls-1" d="M74.77,31.37V10.29h5.57V31.37Zm0-24V2h5.57V7.37Z"/><path class="cls-1" d="M93.76,31.75A19.25,19.25,0,0,1,91,31.49,16.12,16.12,0,0,1,88.3,31a21.23,21.23,0,0,1-2.62-.88A12,12,0,0,1,83.55,29l2.25-3.68a15.07,15.07,0,0,0,8,2.67,5.09,5.09,0,0,0,2.72-.64,2,2,0,0,0,1-1.78,1.74,1.74,0,0,0-1.18-1.65,23.18,23.18,0,0,0-3.92-1.14,34,34,0,0,1-3.56-1,6.09,6.09,0,0,1-2.37-1.27,3.88,3.88,0,0,1-1.31-1.52,4.05,4.05,0,0,1-.35-2A6.15,6.15,0,0,1,85.45,14a5.39,5.39,0,0,1,1.9-2.16,8.06,8.06,0,0,1,2.73-1.4,10.28,10.28,0,0,1,3.44-.51,14.73,14.73,0,0,1,4.63.77,31.22,31.22,0,0,1,4.27,1.9l-2.26,3.3a17.28,17.28,0,0,0-3.44-1.65,9.4,9.4,0,0,0-3.2-.51,5.85,5.85,0,0,0-2.49.51,1.82,1.82,0,0,0-1,1.78,1.63,1.63,0,0,0,1,1.52,15.81,15.81,0,0,0,3.44,1.15c1.54.38,2.85.76,3.91,1.14a10.61,10.61,0,0,1,2.73,1.27,5,5,0,0,1,1.55,1.65,5.34,5.34,0,0,1,.47,2.29,7.45,7.45,0,0,1-.59,2.79A7.82,7.82,0,0,1,100.76,30a7.53,7.53,0,0,1-2.85,1.27A30.52,30.52,0,0,1,93.76,31.75Z"/><path class="cls-1" d="M39.76,31.75a6.5,6.5,0,0,1-5.11-2,9.53,9.53,0,0,1-1.78-6.22V10.29h5.58V22.35c0,3.3,1.19,4.82,3.56,4.82a7.28,7.28,0,0,0,3.21-.88,6.6,6.6,0,0,0,2.49-2.92V10.29h5.58V25.14a2.54,2.54,0,0,0,.35,1.27,1.88,1.88,0,0,0,1.19.38v4.58c-.59.12-1.07.12-1.54.25H52.1A3.93,3.93,0,0,1,49.73,31a2.79,2.79,0,0,1-.95-1.77l-.12-1.78a8.6,8.6,0,0,1-3.8,3.17,14.12,14.12,0,0,1-5.1,1.15Z"/></g></g></svg>